<?xml version="1.0" encoding="UTF-8" standalone="no"?>
<!-- Created with Inkscape (http://www.inkscape.org/) -->

<svg
   xmlns:dc="http://purl.org/dc/elements/1.1/"
   xmlns:cc="http://creativecommons.org/ns#"
   xmlns:rdf="http://www.w3.org/1999/02/22-rdf-syntax-ns#"
   xmlns:svg="http://www.w3.org/2000/svg"
   xmlns="http://www.w3.org/2000/svg"
   version="1.2"
   width="274.69101"
   height="185.1687"
   id="svg3561">
  <defs
     id="defs3563" />
  <metadata
     id="metadata3566">
    <rdf:RDF>
      <cc:Work
         rdf:about="">
        <dc:format>image/svg+xml</dc:format>
        <dc:type
           rdf:resource="http://purl.org/dc/dcmitype/StillImage" />
        <dc:title></dc:title>
      </cc:Work>
    </rdf:RDF>
  </metadata>
  <g
     transform="translate(-237.6545,-439.77783)"
     id="layer1">
    <g
       transform="matrix(0.96415438,0,0,0.96415438,145.87991,9.2800671)"
       id="g3470">
      <rect
         width="283.34778"
         height="190.49719"
         ry="13.276242"
         x="95.964493"
         y="447.28082"
         id="rect3267"
         style="color:#000000;fill:#eefff5;fill-opacity:1;stroke:#000000;stroke-width:1.55576742;stroke-linecap:round;stroke-miterlimit:4;stroke-opacity:1;stroke-dasharray:none;stroke-dashoffset:0;marker:none;visibility:visible;display:inline;overflow:visible;enable-background:accumulate" />
      <rect
         width="86.767975"
         height="16.678362"
         ry="0"
         x="253.47876"
         y="530.60828"
         id="rect3329"
         style="color:#000000;fill:#ffff00;stroke:#808000;stroke-width:1.54451752;stroke-linecap:round;stroke-miterlimit:4;stroke-opacity:1;stroke-dasharray:none;stroke-dashoffset:0;marker:none;visibility:visible;display:inline;overflow:visible;enable-background:accumulate" />
      <rect
         width="215.95149"
         height="18.971737"
         ry="4.4619031"
         x="126.83833"
         y="456.98785"
         id="rect3269"
         style="color:#000000;fill:#ffffff;stroke:#000000;stroke-width:1.78515136;stroke-linecap:round;stroke-miterlimit:4;stroke-opacity:1;stroke-dasharray:none;stroke-dashoffset:0;marker:none;visibility:visible;display:inline;overflow:visible;enable-background:accumulate" />
      <g
         id="text3277"
         style="font-size:13.32724476px;font-style:normal;font-variant:normal;font-weight:normal;font-stretch:normal;text-align:start;line-height:125%;letter-spacing:0px;word-spacing:0px;text-anchor:start;fill:#000000;fill-opacity:1;stroke:none;font-family:Utopia;-inkscape-font-specification:Utopia">
        <path
           d="m 337.18875,464.43008 0.46646,-2.99863 c 0.0666,-0.47978 -0.10662,-0.70634 -0.59973,-0.70634 -0.49311,0 -0.66636,0.22656 -0.59973,0.70634 l 0.46646,2.99863 0.26654,0 m 2.199,0 0.46645,-2.99863 c 0.0666,-0.47978 -0.10662,-0.70634 -0.59973,-0.70634 -0.4931,0 -0.66636,0.22656 -0.59972,0.70634 l 0.46645,2.99863 0.26655,0 m -11.09973,-0.34651 0,0.38649 c 0.63971,0.0267 0.77298,0.10662 1.01287,0.69302 0.66637,1.59927 1.77253,4.43797 2.09238,5.35755 0.08,0.22656 0.10662,0.42647 0.10662,0.65304 0,0.30652 -0.11995,0.70634 -0.31985,1.13281 -0.19991,0.4398 -0.4398,0.55975 -0.5864,0.55975 -0.13328,0 -0.25322,-0.04 -0.49311,-0.27988 -0.13327,-0.11994 -0.23989,-0.18658 -0.39982,-0.18658 -0.25322,0 -0.5864,0.35984 -0.5864,0.74633 0,0.31985 0.37317,0.69302 0.93291,0.69302 0.53309,0 1.21278,-0.15993 1.89247,-2.13236 0.82629,-2.37225 2.05239,-5.6241 2.46554,-6.55701 0.23989,-0.53309 0.31985,-0.63971 0.98622,-0.67969 l 0,-0.38649 -2.55884,0 0,0.38649 0.69302,0.0666 c 0.22656,0.0267 0.25322,0.18658 0.18658,0.45312 -0.19991,0.79964 -0.89292,2.81206 -1.47932,4.41132 l -0.0267,0 c -0.61305,-1.61259 -1.14614,-3.06526 -1.63925,-4.46462 -0.08,-0.23989 -0.10661,-0.38649 0.19991,-0.41315 l 0.57307,-0.0533 0,-0.38649 -3.05194,0 m -2.33806,4.62459 c 0,1.0795 -0.82629,1.35938 -1.34605,1.35938 -0.82629,0 -1.22611,-0.5864 -1.22611,-1.37271 0,-0.62638 0.2932,-0.94624 1.03953,-1.22611 0.53309,-0.19991 1.23943,-0.45312 1.53263,-0.63971 l 0,1.87915 m 1.19945,-3.01196 c 0,-0.77298 -0.17325,-1.77252 -2.18566,-1.77252 -1.50598,0 -2.69211,0.7863 -2.69211,1.5193 0,0.42647 0.49311,0.62638 0.74633,0.62638 0.27987,0 0.35983,-0.1466 0.42647,-0.37316 0.2932,-0.98622 0.83962,-1.30607 1.37271,-1.30607 0.51976,0 1.13281,0.26654 1.13281,1.33272 l 0,0.55975 c -0.33318,0.34651 -1.62592,0.67969 -2.67877,1.01287 -0.95956,0.2932 -1.23944,0.95956 -1.23944,1.58594 0,0.99954 0.66637,1.89247 1.91913,1.89247 0.82628,-0.0267 1.55928,-0.51976 1.98576,-0.79964 0.18658,0.49311 0.39981,0.79964 0.86627,0.79964 0.4931,0 1.06618,-0.1466 1.57261,-0.39982 l -0.08,-0.31985 c -0.18658,0.04 -0.47978,0.0666 -0.67969,0.0133 -0.23989,-0.0533 -0.46646,-0.30653 -0.46646,-1.14615 l 0,-3.22519 m -16.027,-1.61257 0,0.38649 c 0.54642,0.0267 0.71967,0.0666 0.8796,0.57307 0.55974,1.7592 1.14614,3.55838 1.70589,5.57079 l 1.01287,0 1.57261,-5.07768 0.04,0 c 0.55974,1.69256 1.10616,3.38512 1.63925,5.07768 l 1.01287,0 c 0.55974,-1.9591 1.34605,-4.33135 1.67923,-5.37088 0.22656,-0.67969 0.37316,-0.733 1.03952,-0.77298 l 0,-0.38649 -2.62546,0 0,0.38649 0.75965,0.0666 c 0.22656,0.0267 0.23989,0.19991 0.18658,0.4398 -0.17325,0.7863 -0.78631,2.94532 -1.19945,4.4513 l -0.0267,0 c -0.57308,-1.73254 -1.11949,-3.45176 -1.66591,-5.1843 l -1.01287,0 -1.54596,5.1843 -0.0267,0 c -0.47978,-1.53263 -0.89292,-3.0786 -1.31939,-4.51794 -0.08,-0.25322 0,-0.37316 0.23989,-0.39982 l 0.46645,-0.04 0,-0.38649 -2.81205,0 m -2.378,4.62462 c 0,1.0795 -0.82629,1.35938 -1.34605,1.35938 -0.82629,0 -1.22611,-0.5864 -1.22611,-1.37271 0,-0.62638 0.2932,-0.94624 1.03953,-1.22611 0.53309,-0.19991 1.23943,-0.45312 1.53263,-0.63971 l 0,1.87915 m 1.19945,-3.01196 c 0,-0.77298 -0.17326,-1.77252 -2.18567,-1.77252 -1.50597,0 -2.6921,0.7863 -2.6921,1.5193 0,0.42647 0.49311,0.62638 0.74633,0.62638 0.27987,0 0.35983,-0.1466 0.42647,-0.37316 0.2932,-0.98622 0.83961,-1.30607 1.3727,-1.30607 0.51977,0 1.13282,0.26654 1.13282,1.33272 l 0,0.55975 c -0.33318,0.34651 -1.62593,0.67969 -2.67878,1.01287 -0.95956,0.2932 -1.23943,0.95956 -1.23943,1.58594 0,0.99954 0.66636,1.89247 1.91912,1.89247 0.82629,-0.0267 1.55929,-0.51976 1.98576,-0.79964 0.18658,0.49311 0.39982,0.79964 0.86627,0.79964 0.49311,0 1.06618,-0.1466 1.57262,-0.39982 l -0.08,-0.31985 c -0.18658,0.04 -0.47978,0.0666 -0.67969,0.0133 -0.23989,-0.0533 -0.46645,-0.30653 -0.46645,-1.14615 l 0,-3.22519 m -11.42517,-1.77249 -2.02574,0.33318 0,0.33318 0.50643,0.0666 c 0.34651,0.0533 0.42647,0.11995 0.42647,0.59973 l 0,4.19808 c 0,0.67969 -0.0666,0.70635 -0.99954,0.77298 l 0,0.38649 3.51839,0 0,-0.38649 c -1.18612,-0.0666 -1.26608,-0.0933 -1.26608,-0.77298 l 0,-3.11857 c 0,-1.0262 0.45312,-1.37271 0.75965,-1.37271 0.21323,0 0.4398,0.08 0.82629,0.2932 0.0933,0.0533 0.19991,0.0666 0.26654,0.0666 0.31986,0 0.61306,-0.33319 0.61306,-0.74633 0,-0.2932 -0.18659,-0.65303 -0.70635,-0.65303 -0.47978,0 -0.8796,0.2932 -1.75919,1.06617 l -0.15993,-1.06617 m -4.92359,4.78455 c 0,1.0795 -0.82629,1.35938 -1.34605,1.35938 -0.82629,0 -1.22611,-0.5864 -1.22611,-1.37271 0,-0.62638 0.2932,-0.94624 1.03953,-1.22611 0.53309,-0.19991 1.23943,-0.45312 1.53263,-0.63971 l 0,1.87915 m 1.19945,-3.01196 c 0,-0.77298 -0.17325,-1.77252 -2.18566,-1.77252 -1.50598,0 -2.69211,0.7863 -2.69211,1.5193 0,0.42647 0.49311,0.62638 0.74633,0.62638 0.27987,0 0.35983,-0.1466 0.42647,-0.37316 0.2932,-0.98622 0.83962,-1.30607 1.37271,-1.30607 0.51976,0 1.13281,0.26654 1.13281,1.33272 l 0,0.55975 c -0.33318,0.34651 -1.62592,0.67969 -2.67877,1.01287 -0.95957,0.2932 -1.23944,0.95956 -1.23944,1.58594 0,0.99954 0.66636,1.89247 1.91912,1.89247 0.82629,-0.0267 1.55929,-0.51976 1.98576,-0.79964 0.18659,0.49311 0.39982,0.79964 0.86627,0.79964 0.49311,0 1.06619,-0.1466 1.57262,-0.39982 l -0.08,-0.31985 c -0.18658,0.04 -0.47978,0.0666 -0.67969,0.0133 -0.23989,-0.0533 -0.46646,-0.30653 -0.46646,-1.14615 l 0,-3.22519 m -7.33472,-1.07948 1.62592,0 0,-0.53309 -1.62592,0 -0.0533,-1.49265 c -0.04,-1.26609 0.42647,-1.39936 0.63971,-1.39936 0.27987,0 0.57307,0.13327 0.90625,0.90625 0.0666,0.13328 0.15993,0.22657 0.35984,0.22657 0.26654,0 0.65303,-0.22657 0.65303,-0.62638 0,-0.4398 -0.55974,-0.97289 -1.62592,-0.97289 -0.733,0 -1.35938,0.33318 -1.69256,0.83961 -0.30653,0.46646 -0.4398,1.1728 -0.4398,2.0524 l 0,0.46645 -1.0262,0 0,0.53309 1.0262,0 0,4.83779 c 0,0.67969 -0.04,0.70635 -0.99955,0.77298 l 0,0.38649 3.5184,0 0,-0.38649 c -1.21278,-0.0533 -1.26609,-0.08 -1.26609,-0.75965 l 0,-4.85112 m -8.33329,-0.69301 -2.02574,0.33318 0,0.33318 0.50643,0.0666 c 0.34651,0.0533 0.42647,0.11995 0.42647,0.59973 l 0,4.19808 c 0,0.67969 -0.0666,0.70635 -0.99954,0.77298 l 0,0.38649 3.51839,0 0,-0.38649 c -1.18612,-0.0666 -1.26609,-0.0933 -1.26609,-0.77298 l 0,-3.11857 c 0,-1.0262 0.45313,-1.37271 0.75966,-1.37271 0.21323,0 0.4398,0.08 0.82629,0.2932 0.0933,0.0533 0.1999,0.0666 0.26654,0.0666 0.31985,0 0.61305,-0.33319 0.61305,-0.74633 0,-0.2932 -0.18658,-0.65303 -0.70634,-0.65303 -0.47978,0 -0.8796,0.2932 -1.7592,1.06617 l -0.15992,-1.06617 m -4.92359,4.78455 c 0,1.0795 -0.82629,1.35938 -1.34605,1.35938 -0.82629,0 -1.22611,-0.5864 -1.22611,-1.37271 0,-0.62638 0.2932,-0.94624 1.03953,-1.22611 0.53309,-0.19991 1.23943,-0.45312 1.53263,-0.63971 l 0,1.87915 m 1.19945,-3.01196 c 0,-0.77298 -0.17325,-1.77252 -2.18567,-1.77252 -1.50597,0 -2.6921,0.7863 -2.6921,1.5193 0,0.42647 0.49311,0.62638 0.74633,0.62638 0.27987,0 0.35983,-0.1466 0.42647,-0.37316 0.2932,-0.98622 0.83961,-1.30607 1.3727,-1.30607 0.51977,0 1.13282,0.26654 1.13282,1.33272 l 0,0.55975 c -0.33318,0.34651 -1.62592,0.67969 -2.67878,1.01287 -0.95956,0.2932 -1.23943,0.95956 -1.23943,1.58594 0,0.99954 0.66636,1.89247 1.91912,1.89247 0.82629,-0.0267 1.55929,-0.51976 1.98576,-0.79964 0.18658,0.49311 0.39982,0.79964 0.86627,0.79964 0.49311,0 1.06618,-0.1466 1.57262,-0.39982 l -0.08,-0.31985 c -0.18659,0.04 -0.47979,0.0666 -0.67969,0.0133 -0.23989,-0.0533 -0.46646,-0.30653 -0.46646,-1.14615 l 0,-3.22519 m -7.33473,-1.07948 1.62592,0 0,-0.53309 -1.62592,0 -0.0533,-1.49265 c -0.04,-1.26609 0.42647,-1.39936 0.63971,-1.39936 0.27987,0 0.57307,0.13327 0.90625,0.90625 0.0666,0.13328 0.15993,0.22657 0.35984,0.22657 0.26654,0 0.65303,-0.22657 0.65303,-0.62638 0,-0.4398 -0.55974,-0.97289 -1.62592,-0.97289 -0.733,0 -1.35938,0.33318 -1.69256,0.83961 -0.30653,0.46646 -0.4398,1.1728 -0.4398,2.0524 l 0,0.46645 -1.0262,0 0,0.53309 1.0262,0 0,4.83779 c 0,0.67969 -0.04,0.70635 -0.99954,0.77298 l 0,0.38649 3.51839,0 0,-0.38649 c -1.21278,-0.0533 -1.26609,-0.08 -1.26609,-0.75965 l 0,-4.85112 m -5.86754,5.99726 0,-0.38649 c -0.94623,-0.0666 -0.99954,-0.0933 -0.99954,-0.77298 l 0,-8.64938 -0.0933,-0.08 -2.09238,0.33318 0,0.33318 0.50644,0.0533 c 0.34651,0.04 0.42647,0.10662 0.42647,0.61305 l 0,2.18567 c -0.37316,-0.19991 -0.86627,-0.31985 -1.47933,-0.31985 -1.09283,0 -1.90579,0.3465 -2.46554,0.91958 -0.57307,0.59972 -0.91958,1.47932 -0.91958,2.63879 0,1.97243 1.0262,3.29183 2.7854,3.29183 0.71967,0 1.34605,-0.31986 2.06572,-0.90625 l 0,0.65303 0.10662,0.0933 2.15901,0 m -2.2523,-2.26563 c 0,0.2932 -0.0133,0.51976 -0.0933,0.74633 -0.26655,0.69301 -0.85295,0.95956 -1.54596,0.95956 -1.22611,0 -1.83916,-1.19946 -1.83916,-2.73209 0,-1.73254 0.62638,-2.93199 1.98576,-2.93199 0.62638,0 1.13281,0.2932 1.3727,0.83962 0.10662,0.22656 0.11995,0.41314 0.11995,0.77298 l 0,2.34559 m -6.71879,-2.30557 c 0,-1.34605 -0.733,-2.11903 -1.9591,-2.11903 -0.98622,0 -1.59928,0.47978 -2.42556,1.01287 l -0.18658,-1.01287 -1.98576,0.33318 0,0.33318 0.50643,0.0666 c 0.34651,0.0533 0.42647,0.11995 0.42647,0.59973 l 0,4.19808 c 0,0.67969 -0.04,0.70635 -0.99954,0.77298 l 0,0.38649 3.25185,0 0,-0.38649 c -0.94624,-0.0666 -0.99955,-0.0933 -0.99955,-0.77298 l 0,-3.11857 c 0,-0.33318 0.0267,-0.51977 0.13328,-0.733 0.27987,-0.51976 0.8796,-0.95956 1.58594,-0.95956 0.90625,0 1.39936,0.50643 1.39936,1.6659 l 0,3.14523 c 0,0.67969 -0.04,0.70635 -0.99954,0.77298 l 0,0.38649 3.25184,0 0,-0.38649 c -0.94623,-0.0666 -0.99954,-0.0933 -0.99954,-0.77298 l 0,-3.41177 m -9.45484,2.66548 c 0,1.0795 -0.82629,1.35938 -1.34605,1.35938 -0.82629,0 -1.22611,-0.5864 -1.22611,-1.37271 0,-0.62638 0.2932,-0.94624 1.03952,-1.22611 0.53309,-0.19991 1.23944,-0.45312 1.53264,-0.63971 l 0,1.87915 m 1.19945,-3.01196 c 0,-0.77298 -0.17326,-1.77252 -2.18567,-1.77252 -1.50598,0 -2.6921,0.7863 -2.6921,1.5193 0,0.42647 0.49311,0.62638 0.74632,0.62638 0.27988,0 0.35984,-0.1466 0.42648,-0.37316 0.29319,-0.98622 0.83961,-1.30607 1.3727,-1.30607 0.51976,0 1.13282,0.26654 1.13282,1.33272 l 0,0.55975 c -0.33318,0.34651 -1.62593,0.67969 -2.67878,1.01287 -0.95956,0.2932 -1.23943,0.95956 -1.23943,1.58594 0,0.99954 0.66636,1.89247 1.91912,1.89247 0.82629,-0.0267 1.55929,-0.51976 1.98576,-0.79964 0.18658,0.49311 0.39982,0.79964 0.86627,0.79964 0.49311,0 1.06618,-0.1466 1.57262,-0.39982 l -0.08,-0.31985 c -0.18658,0.04 -0.47978,0.0666 -0.67969,0.0133 -0.23989,-0.0533 -0.46645,-0.30653 -0.46645,-1.14615 l 0,-3.22519 m -6.97408,-4.89107 -0.0933,-0.08 -2.09238,0.33318 0,0.33318 0.50644,0.0533 c 0.34651,0.04 0.42647,0.10662 0.42647,0.61305 l 0,7.39662 c 0,0.67969 -0.04,0.70635 -0.99954,0.77298 l 0,0.38649 3.25185,0 0,-0.38649 c -0.94624,-0.0666 -0.99955,-0.0933 -0.99955,-0.77298 l 0,-8.64938 m -6.54346,3.62506 0.46646,-2.99863 c 0.0666,-0.47978 -0.10662,-0.70634 -0.59973,-0.70634 -0.49311,0 -0.66636,0.22656 -0.59972,0.70634 l 0.46645,2.99863 0.26654,0 m 2.199,0 0.46645,-2.99863 c 0.0666,-0.47978 -0.10662,-0.70634 -0.59972,-0.70634 -0.49311,0 -0.66637,0.22656 -0.59973,0.70634 l 0.46645,2.99863 0.26655,0 m -6.66758,0.70634 -0.4398,1.77253 -1.79918,0 0.4398,-1.77253 1.79918,0 m 2.1057,0 0.13328,-0.61305 -1.38604,0 0.69302,-2.81205 -0.70634,0 -0.69302,2.81205 -1.79918,0 0.69302,-2.81205 -0.71967,0 -0.69302,2.81205 -1.41269,0 -0.15992,0.61305 1.42601,0 -0.4398,1.77253 -1.41269,0 -0.15992,0.61305 1.42601,0 -0.77298,3.09192 0.733,0 0.75965,-3.09192 1.79918,0 -0.77298,3.09192 0.71967,0 0.75965,-3.09192 1.39937,0 0.13327,-0.61305 -1.38604,0 0.4398,-1.77253 1.39936,0 m -9.1883,3.57171 c 0,1.0795 -0.82629,1.35938 -1.34605,1.35938 -0.82629,0 -1.22611,-0.5864 -1.22611,-1.37271 0,-0.62638 0.2932,-0.94624 1.03953,-1.22611 0.53309,-0.19991 1.23943,-0.45312 1.53263,-0.63971 l 0,1.87915 m 1.19945,-3.01196 c 0,-0.77298 -0.17326,-1.77252 -2.18567,-1.77252 -1.50597,0 -2.6921,0.7863 -2.6921,1.5193 0,0.42647 0.49311,0.62638 0.74633,0.62638 0.27987,0 0.35983,-0.1466 0.42647,-0.37316 0.2932,-0.98622 0.83961,-1.30607 1.3727,-1.30607 0.51977,0 1.13282,0.26654 1.13282,1.33272 l 0,0.55975 c -0.33318,0.34651 -1.62593,0.67969 -2.67878,1.01287 -0.95956,0.2932 -1.23943,0.95956 -1.23943,1.58594 0,0.99954 0.66636,1.89247 1.91912,1.89247 0.82629,-0.0267 1.55929,-0.51976 1.98576,-0.79964 0.18658,0.49311 0.39982,0.79964 0.86627,0.79964 0.49311,0 1.06618,-0.1466 1.57262,-0.39982 l -0.08,-0.31985 c -0.18658,0.04 -0.47978,0.0666 -0.67969,0.0133 -0.23989,-0.0533 -0.46645,-0.30653 -0.46645,-1.14615 l 0,-3.22519 m -6.97407,-4.89107 -0.0933,-0.08 -2.09238,0.33318 0,0.33318 0.50644,0.0533 c 0.34651,0.04 0.42647,0.10662 0.42647,0.61305 l 0,7.39662 c 0,0.67969 -0.04,0.70635 -0.99954,0.77298 l 0,0.38649 3.25184,0 0,-0.38649 c -0.94623,-0.0666 -0.99954,-0.0933 -0.99954,-0.77298 l 0,-8.64938 m -9.04461,9.96883 0.53309,-0.51976 c 0.46646,0.26654 1.0262,0.51976 2.02574,0.51976 1.77253,0 3.31849,-0.85295 3.31849,-3.5717 0,-0.82629 -0.17326,-3.2785 -2.57216,-3.2785 -1.01287,0 -1.79918,0.65303 -2.29229,0.94623 l 0,-4.06481 -0.0933,-0.08 -2.09237,0.33318 0,0.33318 0.50643,0.0533 c 0.34651,0.04 0.42647,0.10662 0.42647,0.61305 l 0,8.6094 0.23989,0.10662 m 1.01287,-4.43797 c 0,-0.33318 0.0267,-0.54642 0.13328,-0.75966 0.31985,-0.6397 0.8796,-0.9329 1.62592,-0.9329 0.54642,0 1.71922,0.31985 1.71922,2.63879 0,1.9591 -0.59973,3.02529 -1.91913,3.02529 -0.70634,0 -1.2261,-0.35984 -1.46599,-1.0262 -0.08,-0.23989 -0.0933,-0.51977 -0.0933,-0.83962 l 0,-2.1057 m -6.47619,4.478 2.79872,-9.62227 -0.89293,0 -2.79872,9.62227 0.89293,0 m -4.52377,-2.1057 c 0,1.0795 -0.82629,1.35938 -1.34606,1.35938 -0.82628,0 -1.2261,-0.5864 -1.2261,-1.37271 0,-0.62638 0.2932,-0.94624 1.03952,-1.22611 0.53309,-0.19991 1.23944,-0.45312 1.53264,-0.63971 l 0,1.87915 m 1.19945,-3.01196 c 0,-0.77298 -0.17326,-1.77252 -2.18567,-1.77252 -1.50598,0 -2.6921,0.7863 -2.6921,1.5193 0,0.42647 0.4931,0.62638 0.74632,0.62638 0.27987,0 0.35984,-0.1466 0.42647,-0.37316 0.2932,-0.98622 0.83962,-1.30607 1.37271,-1.30607 0.51976,0 1.13282,0.26654 1.13282,1.33272 l 0,0.55975 c -0.33319,0.34651 -1.62593,0.67969 -2.67878,1.01287 -0.95956,0.2932 -1.23943,0.95956 -1.23943,1.58594 0,0.99954 0.66636,1.89247 1.91912,1.89247 0.82629,-0.0267 1.55929,-0.51976 1.98576,-0.79964 0.18658,0.49311 0.39982,0.79964 0.86627,0.79964 0.49311,0 1.06618,-0.1466 1.57261,-0.39982 l -0.08,-0.31985 c -0.18658,0.04 -0.47978,0.0666 -0.67969,0.0133 -0.23989,-0.0533 -0.46645,-0.30653 -0.46645,-1.14615 l 0,-3.22519 m -6.97407,-4.89107 -0.0933,-0.08 -2.09237,0.33318 0,0.33318 0.50643,0.0533 c 0.34651,0.04 0.42647,0.10662 0.42647,0.61305 l 0,7.39662 c 0,0.67969 -0.04,0.70635 -0.99954,0.77298 l 0,0.38649 3.25185,0 0,-0.38649 c -0.94624,-0.0666 -0.99955,-0.0933 -0.99955,-0.77298 l 0,-8.64938 m -9.0446,9.96883 0.53309,-0.51976 c 0.46645,0.26654 1.0262,0.51976 2.02574,0.51976 1.77252,0 3.31848,-0.85295 3.31848,-3.5717 0,-0.82629 -0.17326,-3.2785 -2.57216,-3.2785 -1.01287,0 -1.79918,0.65303 -2.29228,0.94623 l 0,-4.06481 -0.0933,-0.08 -2.09238,0.33318 0,0.33318 0.50643,0.0533 c 0.34651,0.04 0.42648,0.10662 0.42648,0.61305 l 0,8.6094 0.23989,0.10662 m 1.01287,-4.43797 c 0,-0.33318 0.0266,-0.54642 0.13327,-0.75966 0.31985,-0.6397 0.8796,-0.9329 1.62592,-0.9329 0.54642,0 1.71922,0.31985 1.71922,2.63879 0,1.9591 -0.59973,3.02529 -1.91913,3.02529 -0.70634,0 -1.2261,-0.35984 -1.46599,-1.0262 -0.08,-0.23989 -0.0933,-0.51977 -0.0933,-0.83962 l 0,-2.1057 m -4.21972,4.43802 c 0.51976,0 0.82629,-0.35984 0.83961,-0.83962 0,-0.4931 -0.31985,-0.86627 -0.83961,-0.86627 -0.50644,0 -0.83962,0.37317 -0.83962,0.86627 0,0.47978 0.33318,0.83962 0.83962,0.83962 m -4.17726,-2.06572 c 0,1.0795 -0.82629,1.35938 -1.34605,1.35938 -0.82629,0 -1.22611,-0.5864 -1.22611,-1.37271 0,-0.62638 0.2932,-0.94624 1.03952,-1.22611 0.53309,-0.19991 1.23944,-0.45312 1.53264,-0.63971 l 0,1.87915 m 1.19945,-3.01196 c 0,-0.77298 -0.17326,-1.77252 -2.18567,-1.77252 -1.50598,0 -2.6921,0.7863 -2.6921,1.5193 0,0.42647 0.49311,0.62638 0.74632,0.62638 0.27988,0 0.35984,-0.1466 0.42648,-0.37316 0.29319,-0.98622 0.83961,-1.30607 1.3727,-1.30607 0.51976,0 1.13282,0.26654 1.13282,1.33272 l 0,0.55975 c -0.33318,0.34651 -1.62593,0.67969 -2.67878,1.01287 -0.95956,0.2932 -1.23943,0.95956 -1.23943,1.58594 0,0.99954 0.66636,1.89247 1.91912,1.89247 0.82629,-0.0267 1.55929,-0.51976 1.98576,-0.79964 0.18658,0.49311 0.39982,0.79964 0.86627,0.79964 0.49311,0 1.06618,-0.1466 1.57262,-0.39982 l -0.08,-0.31985 c -0.18658,0.04 -0.47978,0.0666 -0.67969,0.0133 -0.23989,-0.0533 -0.46645,-0.30653 -0.46645,-1.14615 l 0,-3.22519 m -6.97408,-4.89107 -0.0933,-0.08 -2.09237,0.33318 0,0.33318 0.50643,0.0533 c 0.34651,0.04 0.42647,0.10662 0.42647,0.61305 l 0,7.39662 c 0,0.67969 -0.04,0.70635 -0.99954,0.77298 l 0,0.38649 3.25185,0 0,-0.38649 c -0.94624,-0.0666 -0.99955,-0.0933 -0.99955,-0.77298 l 0,-8.64938 m -9.0446,9.96883 0.53309,-0.51976 c 0.46645,0.26654 1.0262,0.51976 2.02574,0.51976 1.77252,0 3.31848,-0.85295 3.31848,-3.5717 0,-0.82629 -0.17325,-3.2785 -2.57216,-3.2785 -1.01287,0 -1.79918,0.65303 -2.29228,0.94623 l 0,-4.06481 -0.0933,-0.08 -2.09238,0.33318 0,0.33318 0.50643,0.0533 c 0.34651,0.04 0.42648,0.10662 0.42648,0.61305 l 0,8.6094 0.23989,0.10662 m 1.01287,-4.43797 c 0,-0.33318 0.0267,-0.54642 0.13327,-0.75966 0.31985,-0.6397 0.8796,-0.9329 1.62592,-0.9329 0.54642,0 1.71922,0.31985 1.71922,2.63879 0,1.9591 -0.59973,3.02529 -1.91913,3.02529 -0.70634,0 -1.2261,-0.35984 -1.46599,-1.0262 -0.08,-0.23989 -0.0933,-0.51977 -0.0933,-0.83962 l 0,-2.1057 m -4.85693,2.3723 c 0,1.0795 -0.82629,1.35938 -1.34605,1.35938 -0.82629,0 -1.22611,-0.5864 -1.22611,-1.37271 0,-0.62638 0.2932,-0.94624 1.03953,-1.22611 0.53309,-0.19991 1.23943,-0.45312 1.53263,-0.63971 l 0,1.87915 m 1.19945,-3.01196 c 0,-0.77298 -0.17325,-1.77252 -2.18567,-1.77252 -1.50597,0 -2.6921,0.7863 -2.6921,1.5193 0,0.42647 0.49311,0.62638 0.74633,0.62638 0.27987,0 0.35983,-0.1466 0.42647,-0.37316 0.2932,-0.98622 0.83961,-1.30607 1.3727,-1.30607 0.51977,0 1.13282,0.26654 1.13282,1.33272 l 0,0.55975 c -0.33318,0.34651 -1.62593,0.67969 -2.67878,1.01287 -0.95956,0.2932 -1.23943,0.95956 -1.23943,1.58594 0,0.99954 0.66636,1.89247 1.91912,1.89247 0.82629,-0.0267 1.55929,-0.51976 1.98576,-0.79964 0.18658,0.49311 0.39982,0.79964 0.86627,0.79964 0.49311,0 1.06618,-0.1466 1.57262,-0.39982 l -0.08,-0.31985 c -0.18658,0.04 -0.47978,0.0666 -0.67968,0.0133 -0.2399,-0.0533 -0.46646,-0.30653 -0.46646,-1.14615 l 0,-3.22519 m -6.97407,-4.89107 -0.0933,-0.08 -2.09237,0.33318 0,0.33318 0.50643,0.0533 c 0.34651,0.04 0.42647,0.10662 0.42647,0.61305 l 0,7.39662 c 0,0.67969 -0.04,0.70635 -0.99954,0.77298 l 0,0.38649 3.25185,0 0,-0.38649 c -0.94623,-0.0666 -0.99954,-0.0933 -0.99954,-0.77298 l 0,-8.64938 m -9.04462,9.96883 0.53309,-0.51976 c 0.46645,0.26654 1.0262,0.51976 2.02574,0.51976 1.77252,0 3.31848,-0.85295 3.31848,-3.5717 0,-0.82629 -0.17325,-3.2785 -2.57216,-3.2785 -1.01287,0 -1.79917,0.65303 -2.29228,0.94623 l 0,-4.06481 -0.0933,-0.08 -2.09238,0.33318 0,0.33318 0.50644,0.0533 c 0.3465,0.04 0.42647,0.10662 0.42647,0.61305 l 0,8.6094 0.23989,0.10662 m 1.01287,-4.43797 c 0,-0.33318 0.0267,-0.54642 0.13327,-0.75966 0.31985,-0.6397 0.8796,-0.9329 1.62592,-0.9329 0.54642,0 1.71922,0.31985 1.71922,2.63879 0,1.9591 -0.59973,3.02529 -1.91912,3.02529 -0.70635,0 -1.22611,-0.35984 -1.466,-1.0262 -0.08,-0.23989 -0.0933,-0.51977 -0.0933,-0.83962 l 0,-2.1057"
           id="path3172" />
      </g>
      <flowRoot
         transform="matrix(0.59914582,0,0,0.59914582,62.163411,235.78241)"
         id="flowRoot3289"
         xml:space="preserve"
         style="font-size:20px;font-style:normal;font-variant:normal;font-weight:normal;font-stretch:normal;text-align:start;line-height:125%;letter-spacing:0px;word-spacing:0px;text-anchor:start;fill:#000000;fill-opacity:1;stroke:none;font-family:Utopia;-inkscape-font-specification:Utopia"><flowRegion
           id="flowRegion3291"><rect
             width="380.19846"
             height="299.39349"
             x="108.5914"
             y="493.24277"
             id="rect3293" /></flowRegion><flowPara
           id="flowPara3441" /></flowRoot>      <text
         x="134.55658"
         y="514.88287"
         id="text3301"
         xml:space="preserve"
         style="font-size:16.26350975px;font-style:normal;font-variant:normal;font-weight:normal;font-stretch:normal;text-align:start;line-height:125%;letter-spacing:0px;word-spacing:0px;text-anchor:start;fill:#000000;fill-opacity:1;stroke:none;font-family:Utopia;-inkscape-font-specification:Utopia"><tspan
           x="134.55658"
           y="514.88287"
           id="tspan3303">Epic story</tspan></text>
      <path
         d="m 352.11303,473.54478 c -2.7444,-2.98873 -2.54528,-2.73069 -6.31345,-6.06092 m 6.31345,-4.79822 c -1.11473,-0.3573 -3.75294,2.97117 -5.80838,4.79822 m 8.62591,74.83423 c -3.59781,-1.71561 -4.60916,-3.32422 -5.93465,-3.03045 m 3.78807,-5.93465 c -3.7833,4.85728 -1.29585,2.58155 -3.78807,5.3033 m 0.37509,-70.45814 c 35.17224,-0.3989 35.42874,67.14669 0.12627,70.58441"
         id="path3346"
         style="color:#000000;fill:none;stroke:#ff0000;stroke-width:4.14871311;stroke-linecap:round;stroke-miterlimit:4;stroke-opacity:1;stroke-dasharray:none;stroke-dashoffset:0;marker:none;visibility:visible;display:inline;overflow:visible;enable-background:accumulate" />
      <path
         d="m 242.764,474.70668 c 13.79283,1.53185 72.96375,4.64435 95.81478,-0.8345"
         id="path3340"
         style="color:#000000;fill:none;stroke:#ff0000;stroke-width:3.78014326;stroke-linecap:round;stroke-miterlimit:4;stroke-opacity:1;stroke-dasharray:none;stroke-dashoffset:0;marker:none;visibility:visible;display:inline;overflow:visible;enable-background:accumulate" />
      <g
         id="text3312"
         style="font-size:11.41864681px;font-style:normal;font-variant:normal;font-weight:normal;font-stretch:normal;text-align:start;line-height:125%;letter-spacing:0px;word-spacing:0px;text-anchor:start;fill:#000000;fill-opacity:1;stroke:none;font-family:Utopia;-inkscape-font-specification:Utopia">
        <path
           d="m 298.61315,598.90088 c 0.44532,0 0.70795,-0.30831 0.71937,-0.71938 0,-0.42249 -0.27405,-0.74221 -0.71937,-0.74221 -0.43391,0 -0.71938,0.31972 -0.71938,0.74221 0,0.41107 0.28547,0.71938 0.71938,0.71938 m -3.79867,-5.86919 -1.73563,0.28547 0,0.28547 0.43391,0.0571 c 0.29688,0.0457 0.36539,0.10277 0.36539,0.51384 l 0,3.59687 c 0,0.58235 -0.0571,0.60519 -0.8564,0.66228 l 0,0.33114 3.01453,0 0,-0.33114 c -1.01626,-0.0571 -1.08478,-0.0799 -1.08478,-0.66228 l 0,-2.67196 c 0,-0.87924 0.38824,-1.17612 0.65087,-1.17612 0.1827,0 0.37681,0.0685 0.70795,0.25121 0.0799,0.0457 0.17128,0.0571 0.22838,0.0571 0.27404,0 0.52525,-0.28546 0.52525,-0.63944 0,-0.25121 -0.15986,-0.55952 -0.60518,-0.55952 -0.41107,0 -0.75364,0.25122 -1.50727,0.9135 l -0.13702,-0.9135 m -2.98793,2.72904 c 0.23979,0 0.45674,-0.0571 0.45674,-0.43391 0,-0.6737 -0.21695,-2.29515 -2.30656,-2.29515 -1.78131,0 -2.62629,1.26748 -2.62629,2.98027 0,1.80415 0.77647,2.91176 2.63771,2.88892 1.26746,-0.0114 1.91833,-0.70796 2.22663,-1.61003 l -0.34256,-0.1827 c -0.31972,0.66228 -0.75363,1.21038 -1.6557,1.21038 -1.41591,0 -1.70138,-1.37024 -1.67854,-2.55778 l 3.28857,0 m -3.27715,-0.43391 c 0,-0.46816 0.17128,-1.89549 1.35881,-1.89549 1.06194,0 1.18754,1.08477 1.18754,1.5301 0,0.21695 -0.0685,0.36539 -0.38823,0.36539 l -2.15812,0 m -1.96117,-1.70138 0,-0.45674 -1.473,0 0,-1.43875 -0.33114,0 -0.69654,1.43875 -0.86782,0 0,0.45674 0.82214,0 0,3.97369 c 0,1.1647 0.86782,1.30173 1.26747,1.30173 0.58235,0 1.13045,-0.29689 1.46159,-0.50242 l -0.0914,-0.23979 c -0.27405,0.11418 -0.52526,0.14844 -0.81072,0.14844 -0.38824,0 -0.75363,-0.27405 -0.75363,-1.14187 l 0,-3.53978 1.473,0 m -5.0625,0 1.39307,0 0,-0.45674 -1.39307,0 -0.0457,-1.27889 c -0.0343,-1.08477 0.3654,-1.19896 0.5481,-1.19896 0.23979,0 0.491,0.11419 0.77647,0.77647 0.0571,0.11419 0.13702,0.19412 0.3083,0.19412 0.22837,0 0.55951,-0.19412 0.55951,-0.53668 0,-0.37681 -0.47958,-0.83356 -1.39307,-0.83356 -0.62803,0 -1.1647,0.28547 -1.45017,0.71937 -0.26263,0.39966 -0.37682,1.00485 -0.37682,1.75848 l 0,0.39965 -0.87923,0 0,0.45674 0.87923,0 0,4.14497 c 0,0.58235 -0.0342,0.60519 -0.85639,0.66228 l 0,0.33114 3.01452,0 0,-0.33114 c -1.0391,-0.0457 -1.08477,-0.0685 -1.08477,-0.65086 l 0,-4.15639 m -4.35549,3.50553 c 0,0.92491 -0.70796,1.1647 -1.15329,1.1647 -0.70795,0 -1.05051,-0.50242 -1.05051,-1.17612 0,-0.53668 0.25121,-0.81072 0.89065,-1.05052 0.45675,-0.17128 1.06194,-0.38823 1.31315,-0.54809 l 0,1.61003 m 1.02767,-2.58062 c 0,-0.66228 -0.14844,-1.51868 -1.87265,-1.51868 -1.29031,0 -2.30657,0.67371 -2.30657,1.30173 0,0.3654 0.42249,0.53668 0.63944,0.53668 0.2398,0 0.30831,-0.12561 0.3654,-0.31973 0.25121,-0.84497 0.71938,-1.11902 1.17612,-1.11902 0.44533,0 0.97059,0.22837 0.97059,1.14186 l 0,0.47958 c -0.28547,0.29689 -1.39308,0.58236 -2.29515,0.86782 -0.82214,0.25121 -1.06194,0.82215 -1.06194,1.35882 0,0.8564 0.57094,1.62145 1.64429,1.62145 0.70795,-0.0228 1.33598,-0.44533 1.70138,-0.68512 0.15986,0.42249 0.34256,0.68512 0.74221,0.68512 0.42249,0 0.91349,-0.12561 1.3474,-0.34256 l -0.0685,-0.27405 c -0.15986,0.0343 -0.41107,0.0571 -0.58235,0.0114 -0.20554,-0.0457 -0.39966,-0.26263 -0.39966,-0.982 l 0,-2.76332 m -9.78899,-1.51866 -1.73564,0.28547 0,0.28547 0.43391,0.0571 c 0.29689,0.0457 0.3654,0.10277 0.3654,0.51384 l 0,3.59687 c 0,0.58235 -0.0571,0.60519 -0.8564,0.66228 l 0,0.33114 3.01452,0 0,-0.33114 c -1.01626,-0.0571 -1.08477,-0.0799 -1.08477,-0.66228 l 0,-2.67196 c 0,-0.87924 0.38823,-1.17612 0.65086,-1.17612 0.1827,0 0.37682,0.0685 0.70796,0.25121 0.0799,0.0457 0.17128,0.0571 0.22837,0.0571 0.27405,0 0.52526,-0.28546 0.52526,-0.63944 0,-0.25121 -0.15986,-0.55952 -0.60519,-0.55952 -0.41107,0 -0.75363,0.25122 -1.50726,0.9135 l -0.13702,-0.9135 m -2.98794,2.72904 c 0.23979,0 0.45675,-0.0571 0.45675,-0.43391 0,-0.6737 -0.21696,-2.29515 -2.30657,-2.29515 -1.7813,0 -2.62629,1.26748 -2.62629,2.98027 0,1.80415 0.77647,2.91176 2.63771,2.88892 1.26747,-0.0114 1.91833,-0.70796 2.22664,-1.61003 l -0.34256,-0.1827 c -0.31972,0.66228 -0.75363,1.21038 -1.65571,1.21038 -1.41591,0 -1.70137,-1.37024 -1.67854,-2.55778 l 3.28857,0 m -3.27715,-0.43391 c 0,-0.46816 0.17128,-1.89549 1.35882,-1.89549 1.06193,0 1.18754,1.08477 1.18754,1.5301 0,0.21695 -0.0685,0.36539 -0.38823,0.36539 l -2.15813,0 m -3.64148,-2.15812 0,0.33114 0.55952,0.0571 c 0.18269,0.0228 0.21695,0.14844 0.17128,0.30831 -0.0913,0.36539 -0.30831,1.02767 -0.57094,1.75847 l -0.76505,2.11245 -0.0228,0 -0.69654,-1.91834 c -0.22837,-0.65086 -0.45675,-1.31314 -0.6737,-1.92975 -0.0799,-0.21695 -0.0343,-0.3083 0.1827,-0.33114 l 0.51384,-0.0571 0,-0.33114 -2.55778,0 0,0.33114 c 0.53668,0.0457 0.63944,0.0914 0.81072,0.51384 0.30831,0.75363 0.57094,1.49584 0.8564,2.28373 l 0.87924,2.46642 0.82214,0 1.01626,-2.76331 c 0.33114,-0.89065 0.66228,-1.64428 0.82214,-2.00968 0.17128,-0.39965 0.29689,-0.46816 0.82214,-0.491 l 0,-0.33114 -2.16954,0 m -4.70077,2.59203 c 0.23979,0 0.45675,-0.0571 0.45675,-0.43391 0,-0.6737 -0.21696,-2.29515 -2.30657,-2.29515 -1.7813,0 -2.62629,1.26748 -2.62629,2.98027 0,1.80415 0.77647,2.91176 2.63771,2.88892 1.26747,-0.0114 1.91833,-0.70796 2.22664,-1.61003 l -0.34256,-0.1827 c -0.31972,0.66228 -0.75363,1.21038 -1.65571,1.21038 -1.41591,0 -1.70137,-1.37024 -1.67854,-2.55778 l 3.28857,0 m -3.27715,-0.43391 c 0,-0.46816 0.17128,-1.89549 1.35882,-1.89549 1.06193,0 1.18754,1.08477 1.18754,1.5301 0,0.21695 -0.0685,0.36539 -0.38823,0.36539 l -2.15813,0 m -10.15653,-2.15812 0,0.33114 c 0.5481,0.0228 0.66228,0.0914 0.86782,0.59377 0.57093,1.37023 1.51868,3.80241 1.79273,4.59029 0.0685,0.19412 0.0913,0.3654 0.0913,0.55952 0,0.26263 -0.10277,0.60519 -0.27405,0.97058 -0.17128,0.37682 -0.37682,0.47959 -0.50242,0.47959 -0.11419,0 -0.21696,-0.0343 -0.42249,-0.2398 -0.11419,-0.10276 -0.20554,-0.15986 -0.34256,-0.15986 -0.21696,0 -0.50242,0.30831 -0.50242,0.63945 0,0.27405 0.31972,0.59377 0.7993,0.59377 0.45675,0 1.0391,-0.13703 1.62145,-1.82699 0.70796,-2.03251 1.75847,-4.81867 2.11245,-5.61797 0.20554,-0.45675 0.27405,-0.5481 0.84498,-0.58235 l 0,-0.33114 -2.19238,0 0,0.33114 0.59377,0.0571 c 0.19412,0.0228 0.21695,0.15986 0.15986,0.38824 -0.17128,0.68511 -0.76505,2.40933 -1.26747,3.77957 l -0.0228,0 c -0.52525,-1.38166 -0.982,-2.62629 -1.40449,-3.82525 -0.0685,-0.20553 -0.0914,-0.33114 0.17128,-0.35398 l 0.491,-0.0457 0,-0.33114 -2.61487,0 m -0.97396,-2.80897 -0.0799,-0.0685 -1.79273,0.28547 0,0.28546 0.43391,0.0457 c 0.29689,0.0343 0.3654,0.0914 0.3654,0.52525 l 0,6.33735 c 0,0.58235 -0.0343,0.60519 -0.8564,0.66228 l 0,0.33114 2.78615,0 0,-0.33114 c -0.81072,-0.0571 -0.8564,-0.0799 -0.8564,-0.66228 l 0,-7.4107 m -5.05867,2.9574 0,0.28547 0.43391,0.0571 c 0.29689,0.0457 0.3654,0.10277 0.3654,0.51384 l 0,3.59687 c 0,0.58235 -0.0343,0.60519 -0.8564,0.66228 l 0,0.33114 2.78615,0 0,-0.33114 c -0.81072,-0.0571 -0.8564,-0.0799 -0.8564,-0.66228 l 0,-4.67022 -0.0799,-0.0685 -1.79273,0.28547 m 1.32457,-2.71764 c -0.41107,0 -0.69654,0.29689 -0.69654,0.70796 0,0.39965 0.28547,0.68512 0.69654,0.68512 0.42249,0 0.68511,-0.28547 0.69653,-0.68512 0,-0.41107 -0.27404,-0.70796 -0.69653,-0.70796 m -6.46781,4.49892 c 0,-0.28547 0.0457,-0.44533 0.14845,-0.65086 0.26263,-0.52526 0.75363,-0.79931 1.35882,-0.79931 0.45674,0 1.473,0.29689 1.473,2.26089 0,1.67854 -0.52526,2.59204 -1.66712,2.59204 -0.59377,0 -1.05052,-0.30831 -1.23321,-0.83357 -0.0685,-0.20553 -0.0799,-0.4339 -0.0799,-0.69653 l 0,-1.87266 m -1.87265,-1.78131 0,0.28547 0.43391,0.0571 c 0.29688,0.0457 0.36539,0.10277 0.36539,0.51384 l 0,6.22316 c 0,0.58235 -0.0571,0.60519 -0.8564,0.66228 l 0,0.33114 2.95743,0 0,-0.33114 c -0.95916,-0.0571 -1.02768,-0.0799 -1.02768,-0.66228 l 0,-1.75847 c 0.2398,0.13702 0.77647,0.26263 1.30173,0.26263 1.54152,0 2.86608,-0.70796 2.86608,-3.0602 0,-0.81072 -0.14844,-2.80899 -2.22664,-2.80899 -0.83356,0 -1.49584,0.55952 -1.94117,0.84498 l -0.14844,-0.84498 -1.72421,0.28547 m -5.06332,1.7813 c 0,-0.28547 0.0457,-0.44533 0.14844,-0.65086 0.26263,-0.52526 0.75363,-0.79931 1.35882,-0.79931 0.45675,0 1.47301,0.29689 1.47301,2.26089 0,1.67854 -0.52526,2.59204 -1.66713,2.59204 -0.59377,0 -1.05051,-0.30831 -1.23321,-0.83357 -0.0685,-0.20553 -0.0799,-0.4339 -0.0799,-0.69653 l 0,-1.87266 m -1.87266,-1.78131 0,0.28547 0.43391,0.0571 c 0.29688,0.0457 0.3654,0.10277 0.3654,0.51384 l 0,6.22316 c 0,0.58235 -0.0571,0.60519 -0.8564,0.66228 l 0,0.33114 2.95743,0 0,-0.33114 c -0.95917,-0.0571 -1.02768,-0.0799 -1.02768,-0.66228 l 0,-1.75847 c 0.23979,0.13702 0.77647,0.26263 1.30172,0.26263 1.54152,0 2.86608,-0.70796 2.86608,-3.0602 0,-0.81072 -0.14844,-2.80899 -2.22663,-2.80899 -0.83356,0 -1.49584,0.55952 -1.94117,0.84498 l -0.14844,-0.84498 -1.72422,0.28547 m -2.40294,3.81382 c 0,0.92491 -0.70796,1.1647 -1.15329,1.1647 -0.70795,0 -1.05051,-0.50242 -1.05051,-1.17612 0,-0.53668 0.25121,-0.81072 0.89065,-1.05052 0.45675,-0.17128 1.06194,-0.38823 1.31315,-0.54809 l 0,1.61003 m 1.02767,-2.58062 c 0,-0.66228 -0.14844,-1.51868 -1.87265,-1.51868 -1.29031,0 -2.30657,0.67371 -2.30657,1.30173 0,0.3654 0.42249,0.53668 0.63944,0.53668 0.23979,0 0.30831,-0.12561 0.3654,-0.31973 0.25121,-0.84497 0.71938,-1.11902 1.17612,-1.11902 0.44533,0 0.97059,0.22837 0.97059,1.14186 l 0,0.47958 c -0.28547,0.29689 -1.39308,0.58236 -2.29515,0.86782 -0.82214,0.25121 -1.06194,0.82215 -1.06194,1.35882 0,0.8564 0.57094,1.62145 1.64429,1.62145 0.70795,-0.0228 1.33598,-0.44533 1.70138,-0.68512 0.15986,0.42249 0.34256,0.68512 0.74221,0.68512 0.42249,0 0.91349,-0.12561 1.3474,-0.34256 l -0.0685,-0.27405 c -0.15986,0.0343 -0.41107,0.0571 -0.58235,0.0114 -0.20554,-0.0457 -0.39966,-0.26263 -0.39966,-0.982 l 0,-2.76332 m -5.97678,0.29691 c 0,-1.15328 -0.62802,-1.81557 -1.68996,-1.81557 -0.83356,0 -1.3474,0.38824 -2.06677,0.86782 l 0,-3.53978 -0.0799,-0.0685 -1.78131,0.28547 0,0.28546 0.43391,0.0571 c 0.29688,0.0457 0.3654,0.10277 0.3654,0.51384 l 0,6.33735 c 0.0114,0.55952 -0.0457,0.60519 -0.84498,0.66228 l 0,0.33114 2.77473,0 0,-0.33114 c -0.78789,-0.0571 -0.8564,-0.10276 -0.8564,-0.66228 l 0,-2.67196 c 0,-0.28547 0.0114,-0.44533 0.10277,-0.61661 0.23979,-0.45674 0.76505,-0.83356 1.37023,-0.83356 0.77647,0 1.19896,0.43391 1.19896,1.42733 l 0,2.6948 c 0,0.55952 -0.0571,0.60519 -0.8564,0.66228 l 0,0.33114 2.78615,0 0,-0.33114 c -0.78788,-0.0571 -0.8564,-0.10276 -0.8564,-0.66228 l 0,-2.92317 m -8.63556,3.91657 0,-0.33114 c -0.81072,-0.0571 -0.85639,-0.0799 -0.85639,-0.66228 l 0,-7.4107 -0.0799,-0.0685 -1.79273,0.28547 0,0.28546 0.43391,0.0457 c 0.29688,0.0343 0.36539,0.0914 0.36539,0.52525 l 0,1.87266 c -0.31972,-0.17128 -0.74221,-0.27405 -1.26747,-0.27405 -0.93632,0 -1.63286,0.29689 -2.11245,0.78789 -0.491,0.51384 -0.78788,1.26747 -0.78788,2.26089 0,1.68996 0.87923,2.82041 2.38649,2.82041 0.61661,0 1.15329,-0.27405 1.76989,-0.77647 l 0,0.55951 0.0914,0.0799 1.84982,0 m -1.92975,-1.94116 c 0,0.25121 -0.0114,0.44532 -0.0799,0.63944 -0.22837,0.59377 -0.73079,0.82214 -1.32456,0.82214 -1.05051,0 -1.57577,-1.02768 -1.57577,-2.34082 0,-1.48442 0.53667,-2.5121 1.70137,-2.5121 0.53668,0 0.97059,0.25121 1.17613,0.71937 0.0913,0.19412 0.10276,0.35398 0.10276,0.66228 l 0,2.00969 m -5.55724,-1.06194 c 0.23979,0 0.45675,-0.0571 0.45675,-0.43391 0,-0.6737 -0.21696,-2.29515 -2.30657,-2.29515 -1.78131,0 -2.62629,1.26748 -2.62629,2.98027 0,1.80415 0.77647,2.91176 2.63771,2.88892 1.26747,-0.0114 1.91833,-0.70796 2.22663,-1.61003 l -0.34256,-0.1827 c -0.31972,0.66228 -0.75363,1.21038 -1.6557,1.21038 -1.41591,0 -1.70138,-1.37024 -1.67854,-2.55778 l 3.28857,0 m -3.27715,-0.43391 c 0,-0.46816 0.17128,-1.89549 1.35882,-1.89549 1.06193,0 1.18754,1.08477 1.18754,1.5301 0,0.21695 -0.0685,0.36539 -0.38824,0.36539 l -2.15812,0 m -1.92583,3.43701 0,-0.33114 c -0.81072,-0.0571 -0.8564,-0.0799 -0.8564,-0.66228 l 0,-7.4107 -0.0799,-0.0685 -1.79272,0.28547 0,0.28546 0.43391,0.0457 c 0.29688,0.0343 0.36539,0.0914 0.36539,0.52525 l 0,1.87266 c -0.31972,-0.17128 -0.74221,-0.27405 -1.26747,-0.27405 -0.93633,0 -1.63286,0.29689 -2.11245,0.78789 -0.491,0.51384 -0.78788,1.26747 -0.78788,2.26089 0,1.68996 0.87923,2.82041 2.38649,2.82041 0.61661,0 1.15329,-0.27405 1.76989,-0.77647 l 0,0.55951 0.0914,0.0799 1.84982,0 m -1.92975,-1.94116 c 0,0.25121 -0.0114,0.44532 -0.0799,0.63944 -0.22837,0.59377 -0.73079,0.82214 -1.32456,0.82214 -1.05052,0 -1.57577,-1.02768 -1.57577,-2.34082 0,-1.48442 0.53667,-2.5121 1.70137,-2.5121 0.53668,0 0.97059,0.25121 1.17612,0.71937 0.0914,0.19412 0.10277,0.35398 0.10277,0.66228 l 0,2.00969 m -8.01796,-3.791 c -1.82698,0 -2.72906,1.08478 -2.72906,2.9346 0,1.84982 0.90208,2.93459 2.72906,2.93459 1.84982,0 2.74047,-1.08477 2.74047,-2.93459 0,-1.84982 -0.89065,-2.9346 -2.74047,-2.9346 m -1.54152,2.9346 c 0,-1.57578 0.50242,-2.53494 1.54152,-2.53494 1.06193,0 1.55293,0.95916 1.55293,2.53494 0,1.57577 -0.491,2.53494 -1.55293,2.53494 -1.0391,0 -1.54152,-0.95917 -1.54152,-2.53494 m -3.98618,2.34082 c -1.35882,0 -1.67854,-1.41591 -1.67854,-2.48927 0,-1.70137 0.6737,-2.38649 1.46159,-2.38649 0.52526,0 0.8564,0.37681 1.08477,0.99342 0.0685,0.1827 0.13702,0.29688 0.35398,0.29688 0.22837,0 0.6737,-0.14844 0.6737,-0.58235 0,-0.52525 -0.75363,-1.10761 -1.98685,-1.10761 -2.07819,0 -2.77473,1.47301 -2.77473,2.99169 0,1.90691 0.93633,2.8775 2.64913,2.8775 0.7993,0 1.87266,-0.42249 2.19238,-1.64429 l -0.33114,-0.15986 c -0.35398,0.79931 -0.81073,1.21038 -1.64429,1.21038 m -6.82014,-2.54636 c 0.23979,0 0.45675,-0.0571 0.45675,-0.43391 0,-0.6737 -0.21696,-2.29515 -2.30657,-2.29515 -1.78131,0 -2.62629,1.26748 -2.62629,2.98027 0,1.80415 0.77647,2.91176 2.63771,2.88892 1.26747,-0.0114 1.91833,-0.70796 2.22663,-1.61003 l -0.34256,-0.1827 c -0.31972,0.66228 -0.75363,1.21038 -1.6557,1.21038 -1.41591,0 -1.70138,-1.37024 -1.67854,-2.55778 l 3.28857,0 m -3.27715,-0.43391 c 0,-0.46816 0.17128,-1.89549 1.35882,-1.89549 1.06193,0 1.18754,1.08477 1.18754,1.5301 0,0.21695 -0.0685,0.36539 -0.38824,0.36539 l -2.15812,0 m -2.79097,-0.47958 c 0,-1.15328 -0.62803,-1.81557 -1.68996,-1.81557 -0.83356,0 -1.3474,0.38824 -2.06677,0.86782 l 0,-3.53978 -0.0799,-0.0685 -1.78131,0.28547 0,0.28546 0.4339,0.0571 c 0.29689,0.0457 0.3654,0.10277 0.3654,0.51384 l 0,6.33735 c 0.0114,0.55952 -0.0457,0.60519 -0.84498,0.66228 l 0,0.33114 2.77473,0 0,-0.33114 c -0.78788,-0.0571 -0.8564,-0.10276 -0.8564,-0.66228 l 0,-2.67196 c 0,-0.28547 0.0114,-0.44533 0.10277,-0.61661 0.23979,-0.45674 0.76505,-0.83356 1.37024,-0.83356 0.77647,0 1.19896,0.43391 1.19896,1.42733 l 0,2.6948 c 0,0.55952 -0.0571,0.60519 -0.8564,0.66228 l 0,0.33114 2.78615,0 0,-0.33114 c -0.78789,-0.0571 -0.8564,-0.10276 -0.8564,-0.66228 l 0,-2.92317 m -8.63556,3.91657 0,-0.33114 c -0.81072,-0.0571 -0.8564,-0.0799 -0.8564,-0.66228 l 0,-7.4107 -0.0799,-0.0685 -1.79273,0.28547 0,0.28546 0.43391,0.0457 c 0.29689,0.0343 0.3654,0.0914 0.3654,0.52525 l 0,1.87266 c -0.31972,-0.17128 -0.74221,-0.27405 -1.26747,-0.27405 -0.93633,0 -1.63287,0.29689 -2.11245,0.78789 -0.491,0.51384 -0.78789,1.26747 -0.78789,2.26089 0,1.68996 0.87924,2.82041 2.3865,2.82041 0.61661,0 1.15328,-0.27405 1.76989,-0.77647 l 0,0.55951 0.0913,0.0799 1.84982,0 m -1.92975,-1.94116 c 0,0.25121 -0.0114,0.44532 -0.0799,0.63944 -0.22837,0.59377 -0.73079,0.82214 -1.32456,0.82214 -1.05052,0 -1.57578,-1.02768 -1.57578,-2.34082 0,-1.48442 0.53668,-2.5121 1.70138,-2.5121 0.53668,0 0.97059,0.25121 1.17612,0.71937 0.0914,0.19412 0.10277,0.35398 0.10277,0.66228 l 0,2.00969 m -5.75661,-1.97543 c 0,-1.15328 -0.62803,-1.81557 -1.67854,-1.81557 -0.84498,0 -1.37024,0.41108 -2.0782,0.86782 l -0.15986,-0.86782 -1.70138,0.28547 0,0.28547 0.43391,0.0571 c 0.29689,0.0457 0.3654,0.10277 0.3654,0.51384 l 0,3.59687 c 0,0.58235 -0.0343,0.60519 -0.8564,0.66228 l 0,0.33114 2.78615,0 0,-0.33114 c -0.81072,-0.0571 -0.8564,-0.0799 -0.8564,-0.66228 l 0,-2.67196 c 0,-0.28547 0.0228,-0.44533 0.11419,-0.62803 0.23979,-0.44532 0.75363,-0.82214 1.35882,-0.82214 0.77646,0 1.19895,0.43391 1.19895,1.42733 l 0,2.6948 c 0,0.58235 -0.0342,0.60519 -0.8564,0.66228 l 0,0.33114 2.78615,0 0,-0.33114 c -0.81072,-0.0571 -0.85639,-0.0799 -0.85639,-0.66228 l 0,-2.92317 m -8.10082,2.28372 c 0,0.92491 -0.70796,1.1647 -1.15328,1.1647 -0.70796,0 -1.05052,-0.50242 -1.05052,-1.17612 0,-0.53668 0.25121,-0.81072 0.89066,-1.05052 0.45674,-0.17128 1.06193,-0.38823 1.31314,-0.54809 l 0,1.61003 m 1.02768,-2.58062 c 0,-0.66228 -0.14845,-1.51868 -1.87266,-1.51868 -1.29031,0 -2.30657,0.67371 -2.30657,1.30173 0,0.3654 0.42249,0.53668 0.63945,0.53668 0.23979,0 0.3083,-0.12561 0.36539,-0.31973 0.25121,-0.84497 0.71938,-1.11902 1.17613,-1.11902 0.44532,0 0.97058,0.22837 0.97058,1.14186 l 0,0.47958 c -0.28547,0.29689 -1.39308,0.58236 -2.29515,0.86782 -0.82214,0.25121 -1.06193,0.82215 -1.06193,1.35882 0,0.8564 0.57093,1.62145 1.64428,1.62145 0.70796,-0.0228 1.33599,-0.44533 1.70138,-0.68512 0.15986,0.42249 0.34256,0.68512 0.74221,0.68512 0.42249,0 0.9135,-0.12561 1.3474,-0.34256 l -0.0685,-0.27405 c -0.15986,0.0343 -0.41107,0.0571 -0.58235,0.0114 -0.20553,-0.0457 -0.39965,-0.26263 -0.39965,-0.982 l 0,-2.76332 m 11.73978,-9.92279 c 0.44533,0 0.70796,-0.3083 0.71938,-0.71937 0,-0.42249 -0.27405,-0.74221 -0.71938,-0.74221 -0.4339,0 -0.71937,0.31972 -0.71937,0.74221 0,0.41107 0.28547,0.71937 0.71937,0.71937 m -3.03307,0 c 0.44532,0 0.70795,-0.3083 0.71937,-0.71937 0,-0.42249 -0.27405,-0.74221 -0.71937,-0.74221 -0.43391,0 -0.71938,0.31972 -0.71938,0.74221 0,0.41107 0.28547,0.71937 0.71938,0.71937 m -3.03308,0 c 0.44532,0 0.70795,-0.3083 0.71937,-0.71937 0,-0.42249 -0.27405,-0.74221 -0.71937,-0.74221 -0.43391,0 -0.71938,0.31972 -0.71938,0.74221 0,0.41107 0.28547,0.71937 0.71938,0.71937 m -3.03308,0 c 0.44533,0 0.70796,-0.3083 0.71938,-0.71937 0,-0.42249 -0.27405,-0.74221 -0.71938,-0.74221 -0.43391,0 -0.71937,0.31972 -0.71937,0.74221 0,0.41107 0.28546,0.71937 0.71937,0.71937 m -3.03308,0 c 0.44533,0 0.70796,-0.3083 0.71938,-0.71937 0,-0.42249 -0.27405,-0.74221 -0.71938,-0.74221 -0.43391,0 -0.71937,0.31972 -0.71937,0.74221 0,0.41107 0.28546,0.71937 0.71937,0.71937 m -3.03308,0 c 0.44533,0 0.70796,-0.3083 0.71938,-0.71937 0,-0.42249 -0.27405,-0.74221 -0.71938,-0.74221 -0.4339,0 -0.71937,0.31972 -0.71937,0.74221 0,0.41107 0.28547,0.71937 0.71937,0.71937 m 15.16539,-14.27331 c 0.44533,0 0.70796,-0.30831 0.71938,-0.71938 0,-0.42249 -0.27405,-0.74221 -0.71938,-0.74221 -0.4339,0 -0.71937,0.31972 -0.71937,0.74221 0,0.41107 0.28547,0.71938 0.71937,0.71938 m -3.03307,0 c 0.44532,0 0.70795,-0.30831 0.71937,-0.71938 0,-0.42249 -0.27405,-0.74221 -0.71937,-0.74221 -0.43391,0 -0.71938,0.31972 -0.71938,0.74221 0,0.41107 0.28547,0.71938 0.71938,0.71938 m -3.03308,0 c 0.44532,0 0.70795,-0.30831 0.71937,-0.71938 0,-0.42249 -0.27405,-0.74221 -0.71937,-0.74221 -0.43391,0 -0.71938,0.31972 -0.71938,0.74221 0,0.41107 0.28547,0.71938 0.71938,0.71938 m -3.03308,0 c 0.44533,0 0.70796,-0.30831 0.71938,-0.71938 0,-0.42249 -0.27405,-0.74221 -0.71938,-0.74221 -0.43391,0 -0.71937,0.31972 -0.71937,0.74221 0,0.41107 0.28546,0.71938 0.71937,0.71938 m -3.03308,0 c 0.44533,0 0.70796,-0.30831 0.71938,-0.71938 0,-0.42249 -0.27405,-0.74221 -0.71938,-0.74221 -0.43391,0 -0.71937,0.31972 -0.71937,0.74221 0,0.41107 0.28546,0.71938 0.71937,0.71938 m -3.03308,0 c 0.44533,0 0.70796,-0.30831 0.71938,-0.71938 0,-0.42249 -0.27405,-0.74221 -0.71938,-0.74221 -0.4339,0 -0.71937,0.31972 -0.71937,0.74221 0,0.41107 0.28547,0.71938 0.71937,0.71938 m 181.44944,-14.27332 c 0.44532,0 0.70795,-0.3083 0.71937,-0.71937 0,-0.42249 -0.27405,-0.74221 -0.71937,-0.74221 -0.43391,0 -0.71938,0.31972 -0.71938,0.74221 0,0.41107 0.28547,0.71937 0.71938,0.71937 m -3.79867,-5.86918 -1.73563,0.28546 0,0.28547 0.4339,0.0571 c 0.29689,0.0457 0.3654,0.10277 0.3654,0.51384 l 0,3.59688 c 0,0.58235 -0.0571,0.60518 -0.8564,0.66228 l 0,0.33114 3.01453,0 0,-0.33114 c -1.01626,-0.0571 -1.08478,-0.0799 -1.08478,-0.66228 l 0,-2.67197 c 0,-0.87923 0.38824,-1.17612 0.65087,-1.17612 0.1827,0 0.37681,0.0685 0.70795,0.25121 0.0799,0.0457 0.17128,0.0571 0.22838,0.0571 0.27404,0 0.52525,-0.28547 0.52525,-0.63945 0,-0.25121 -0.15986,-0.55951 -0.60518,-0.55951 -0.41108,0 -0.75364,0.25121 -1.50727,0.91349 l -0.13702,-0.91349 m -2.98793,2.72904 c 0.23979,0 0.45674,-0.0571 0.45674,-0.4339 0,-0.6737 -0.21695,-2.29515 -2.30656,-2.29515 -1.78131,0 -2.62629,1.26747 -2.62629,2.98026 0,1.80415 0.77647,2.91176 2.6377,2.88892 1.26747,-0.0114 1.91834,-0.70795 2.22664,-1.61003 l -0.34256,-0.1827 c -0.31972,0.66229 -0.75363,1.21038 -1.6557,1.21038 -1.41591,0 -1.70138,-1.37024 -1.67854,-2.55778 l 3.28857,0 m -3.27715,-0.4339 c 0,-0.46817 0.17128,-1.8955 1.35881,-1.8955 1.06194,0 1.18754,1.08477 1.18754,1.5301 0,0.21695 -0.0685,0.3654 -0.38823,0.3654 l -2.15812,0 m -6.4792,-0.22838 c 0,-0.28546 0.0457,-0.44532 0.14844,-0.65086 0.26263,-0.52526 0.75363,-0.79931 1.35882,-0.79931 0.45674,0 1.473,0.29689 1.473,2.2609 0,1.67854 -0.52525,2.59203 -1.66712,2.59203 -0.59377,0 -1.05051,-0.3083 -1.23321,-0.83356 -0.0685,-0.20554 -0.0799,-0.43391 -0.0799,-0.69654 l 0,-1.87266 m -1.87266,-1.78131 0,0.28547 0.43391,0.0571 c 0.29688,0.0457 0.36539,0.10277 0.36539,0.51384 l 0,6.22317 c 0,0.58235 -0.0571,0.60518 -0.85639,0.66228 l 0,0.33114 2.95743,0 0,-0.33114 c -0.95917,-0.0571 -1.02768,-0.0799 -1.02768,-0.66228 l 0,-1.75848 c 0.23979,0.13703 0.77647,0.26263 1.30172,0.26263 1.54152,0 2.86608,-0.70796 2.86608,-3.06019 0,-0.81073 -0.14844,-2.80899 -2.22663,-2.80899 -0.83356,0 -1.49585,0.55951 -1.94117,0.84498 l -0.14844,-0.84498 -1.72422,0.28546 m -3.63312,-0.28547 c -1.82698,0 -2.72906,1.08477 -2.72906,2.93459 0,1.84982 0.90208,2.93459 2.72906,2.93459 1.84982,0 2.74047,-1.08477 2.74047,-2.93459 0,-1.84982 -0.89065,-2.93459 -2.74047,-2.93459 m -1.54152,2.93459 c 0,-1.57577 0.50242,-2.53494 1.54152,-2.53494 1.06193,0 1.55293,0.95917 1.55293,2.53494 0,1.57577 -0.491,2.53494 -1.55293,2.53494 -1.0391,0 -1.54152,-0.95917 -1.54152,-2.53494 m -2.77812,-5.60656 -0.0799,-0.0685 -1.79273,0.28547 0,0.28547 0.43391,0.0457 c 0.29688,0.0343 0.3654,0.0913 0.3654,0.52526 l 0,6.33735 c 0,0.58235 -0.0343,0.60518 -0.8564,0.66228 l 0,0.33114 2.78615,0 0,-0.33114 c -0.81073,-0.0571 -0.8564,-0.0799 -0.8564,-0.66228 l 0,-7.41071 m -2.98796,5.40098 c 0.23979,0 0.45674,-0.0571 0.45674,-0.4339 0,-0.6737 -0.21696,-2.29515 -2.30657,-2.29515 -1.7813,0 -2.62628,1.26747 -2.62628,2.98026 0,1.80415 0.77647,2.91176 2.6377,2.88892 1.26747,-0.0114 1.91834,-0.70795 2.22664,-1.61003 l -0.34256,-0.1827 c -0.31972,0.66229 -0.75363,1.21038 -1.6557,1.21038 -1.41591,0 -1.70138,-1.37024 -1.67855,-2.55778 l 3.28858,0 m -3.27716,-0.4339 c 0,-0.46817 0.17128,-1.8955 1.35882,-1.8955 1.06194,0 1.18754,1.08477 1.18754,1.5301 0,0.21695 -0.0685,0.3654 -0.38823,0.3654 l -2.15813,0 m -3.64147,-2.15813 0,0.33114 0.55952,0.0571 c 0.18269,0.0228 0.21695,0.14844 0.17128,0.3083 -0.0913,0.3654 -0.30831,1.02768 -0.57094,1.75847 l -0.76505,2.11245 -0.0228,0 -0.69654,-1.91833 c -0.22837,-0.65086 -0.45675,-1.31315 -0.6737,-1.92975 -0.0799,-0.21696 -0.0343,-0.30831 0.1827,-0.33114 l 0.51384,-0.0571 0,-0.33114 -2.55778,0 0,0.33114 c 0.53667,0.0457 0.63944,0.0914 0.81072,0.51384 0.30831,0.75363 0.57094,1.49585 0.8564,2.28373 l 0.87924,2.46643 0.82214,0 1.01626,-2.76331 c 0.33114,-0.89066 0.66228,-1.64429 0.82214,-2.00969 0.17128,-0.39965 0.29689,-0.46816 0.82214,-0.491 l 0,-0.33114 -2.16954,0 m -4.70077,2.59203 c 0.23979,0 0.45674,-0.0571 0.45674,-0.4339 0,-0.6737 -0.21695,-2.29515 -2.30657,-2.29515 -1.7813,0 -2.62628,1.26747 -2.62628,2.98026 0,1.80415 0.77647,2.91176 2.6377,2.88892 1.26747,-0.0114 1.91834,-0.70795 2.22664,-1.61003 l -0.34256,-0.1827 c -0.31972,0.66229 -0.75363,1.21038 -1.6557,1.21038 -1.41591,0 -1.70138,-1.37024 -1.67854,-2.55778 l 3.28857,0 m -3.27716,-0.4339 c 0,-0.46817 0.17128,-1.8955 1.35882,-1.8955 1.06194,0 1.18754,1.08477 1.18754,1.5301 0,0.21695 -0.0685,0.3654 -0.38823,0.3654 l -2.15813,0 m -1.92581,3.43701 0,-0.33114 c -0.81073,-0.0571 -0.8564,-0.0799 -0.8564,-0.66228 l 0,-7.41071 -0.0799,-0.0685 -1.79273,0.28547 0,0.28547 0.43391,0.0457 c 0.29688,0.0343 0.3654,0.0913 0.3654,0.52526 l 0,1.87266 c -0.31973,-0.17128 -0.74222,-0.27405 -1.26747,-0.27405 -0.93633,0 -1.63287,0.29688 -2.11245,0.78788 -0.49101,0.51384 -0.78789,1.26748 -0.78789,2.2609 0,1.68995 0.87924,2.8204 2.3865,2.8204 0.6166,0 1.15328,-0.27405 1.76989,-0.77647 l 0,0.55952 0.0913,0.0799 1.84982,0 m -1.92975,-1.94117 c 0,0.25121 -0.0114,0.44533 -0.0799,0.63944 -0.22837,0.59377 -0.73079,0.82215 -1.32456,0.82215 -1.05051,0 -1.57577,-1.02768 -1.57577,-2.34083 0,-1.48442 0.53668,-2.5121 1.70138,-2.5121 0.53667,0 0.97058,0.25121 1.17612,0.71938 0.0913,0.19411 0.10277,0.35397 0.10277,0.66228 l 0,2.00968 m -8.1219,-1.06195 c 0.23979,0 0.45675,-0.0571 0.45675,-0.4339 0,-0.6737 -0.21696,-2.29515 -2.30657,-2.29515 -1.78131,0 -2.62629,1.26747 -2.62629,2.98026 0,1.80415 0.77647,2.91176 2.63771,2.88892 1.26747,-0.0114 1.91833,-0.70795 2.22664,-1.61003 l -0.34256,-0.1827 c -0.31972,0.66229 -0.75363,1.21038 -1.65571,1.21038 -1.41591,0 -1.70137,-1.37024 -1.67854,-2.55778 l 3.28857,0 m -3.27715,-0.4339 c 0,-0.46817 0.17128,-1.8955 1.35882,-1.8955 1.06193,0 1.18754,1.08477 1.18754,1.5301 0,0.21695 -0.0685,0.3654 -0.38823,0.3654 l -2.15813,0 m -4.03845,-2.29515 -1.73563,0.28546 0,0.28547 0.43391,0.0571 c 0.29688,0.0457 0.36539,0.10277 0.36539,0.51384 l 0,3.59688 c 0,0.58235 -0.0571,0.60518 -0.8564,0.66228 l 0,0.33114 3.01453,0 0,-0.33114 c -1.01626,-0.0571 -1.08478,-0.0799 -1.08478,-0.66228 l 0,-2.67197 c 0,-0.87923 0.38824,-1.17612 0.65087,-1.17612 0.1827,0 0.37681,0.0685 0.70795,0.25121 0.0799,0.0457 0.17128,0.0571 0.22838,0.0571 0.27404,0 0.52525,-0.28547 0.52525,-0.63945 0,-0.25121 -0.15986,-0.55951 -0.60518,-0.55951 -0.41107,0 -0.75364,0.25121 -1.50727,0.91349 l -0.13702,-0.91349 m -4.21848,4.09928 c 0,0.92491 -0.70796,1.1647 -1.15328,1.1647 -0.70796,0 -1.05052,-0.50242 -1.05052,-1.17612 0,-0.53667 0.25121,-0.81072 0.89066,-1.05051 0.45674,-0.17128 1.06193,-0.38824 1.31314,-0.5481 l 0,1.61003 m 1.02768,-2.58061 c 0,-0.66228 -0.14844,-1.51868 -1.87266,-1.51868 -1.2903,0 -2.30657,0.6737 -2.30657,1.30172 0,0.3654 0.42249,0.53668 0.63945,0.53668 0.23979,0 0.3083,-0.12561 0.3654,-0.31972 0.25121,-0.84498 0.71937,-1.11903 1.17612,-1.11903 0.44532,0 0.97058,0.22837 0.97058,1.14187 l 0,0.47958 c -0.28546,0.29688 -1.39307,0.58235 -2.29515,0.86782 -0.82214,0.25121 -1.06193,0.82214 -1.06193,1.35881 0,0.8564 0.57093,1.62145 1.64428,1.62145 0.70796,-0.0228 1.33599,-0.44533 1.70138,-0.68512 0.15986,0.42249 0.34256,0.68512 0.74221,0.68512 0.42249,0 0.9135,-0.1256 1.3474,-0.34256 l -0.0685,-0.27404 c -0.15986,0.0342 -0.41107,0.0571 -0.58235,0.0114 -0.20553,-0.0457 -0.39965,-0.26263 -0.39965,-0.982 l 0,-2.76331 m -13.73182,-1.38165 0,0.33114 c 0.46816,0.0228 0.6166,0.0571 0.75363,0.491 0.47958,1.50726 0.982,3.04878 1.46158,4.773 l 0.86782,0 1.3474,-4.35051 0.0343,0 c 0.47958,1.45017 0.94775,2.90034 1.40449,4.35051 l 0.86782,0 c 0.47958,-1.67854 1.15328,-3.71106 1.43875,-4.60172 0.19411,-0.58235 0.31972,-0.62802 0.89065,-0.66228 l 0,-0.33114 -2.24947,0 0,0.33114 0.65086,0.0571 c 0.19412,0.0228 0.20554,0.17128 0.15986,0.37681 -0.14844,0.6737 -0.6737,2.52352 -1.02768,3.81383 l -0.0228,0 c -0.491,-1.48442 -0.95917,-2.95743 -1.42733,-4.44185 l -0.86782,0 -1.32456,4.44185 -0.0228,0 c -0.41107,-1.31314 -0.76505,-2.63771 -1.13045,-3.87092 -0.0685,-0.21696 0,-0.31972 0.20554,-0.34256 l 0.39965,-0.0343 0,-0.33114 -2.40933,0 m -0.17996,0.45679 0,-0.45675 -1.47301,0 0,-1.43875 -0.33114,0 -0.69653,1.43875 -0.86782,0 0,0.45675 0.82214,0 0,3.97369 c 0,1.1647 0.86782,1.30172 1.26747,1.30172 0.58235,0 1.13045,-0.29688 1.46159,-0.50242 l -0.0914,-0.23979 c -0.27405,0.11419 -0.52526,0.14844 -0.81073,0.14844 -0.38823,0 -0.75363,-0.27405 -0.75363,-1.14186 l 0,-3.53978 1.47301,0 m -5.06251,0 1.39307,0 0,-0.45675 -1.39307,0 -0.0457,-1.27889 c -0.0342,-1.08477 0.3654,-1.19895 0.5481,-1.19895 0.23979,0 0.491,0.11418 0.77647,0.77646 0.0571,0.11419 0.13702,0.19412 0.3083,0.19412 0.22837,0 0.55951,-0.19412 0.55951,-0.53668 0,-0.37681 -0.47958,-0.83356 -1.39307,-0.83356 -0.62803,0 -1.1647,0.28547 -1.45017,0.71938 -0.26263,0.39965 -0.37682,1.00484 -0.37682,1.75847 l 0,0.39965 -0.87923,0 0,0.45675 0.87923,0 0,4.14497 c 0,0.58235 -0.0342,0.60518 -0.85639,0.66228 l 0,0.33114 3.01452,0 0,-0.33114 c -1.0391,-0.0457 -1.08477,-0.0685 -1.08477,-0.65086 l 0,-4.15639 m -5.58566,-0.59377 c -1.82698,0 -2.72906,1.08477 -2.72906,2.93459 0,1.84982 0.90208,2.93459 2.72906,2.93459 1.84982,0 2.74047,-1.08477 2.74047,-2.93459 0,-1.84982 -0.89065,-2.93459 -2.74047,-2.93459 m -1.54152,2.93459 c 0,-1.57577 0.50242,-2.53494 1.54152,-2.53494 1.06193,0 1.55293,0.95917 1.55293,2.53494 0,1.57577 -0.491,2.53494 -1.55293,2.53494 -1.0391,0 -1.54152,-0.95917 -1.54152,-2.53494 m -2.52977,-1.21038 0,-1.33598 c -0.37681,-0.27405 -0.95916,-0.38823 -1.473,-0.38823 -1.23322,0 -2.06678,0.58235 -2.0782,1.66712 0.0114,0.94775 0.77647,1.37024 1.72422,1.6557 0.51384,0.15987 1.23321,0.42249 1.23321,1.19896 0,0.58235 -0.45674,0.94775 -1.06193,0.94775 -0.92491,0 -1.43875,-0.6737 -1.66712,-1.64429 l -0.33114,0 0.11418,1.49585 c 0.41107,0.36539 1.10761,0.54809 1.78131,0.54809 1.35882,0 2.13529,-0.71937 2.13529,-1.68996 0,-1.00484 -0.61661,-1.46158 -1.79273,-1.82698 -0.46816,-0.14844 -1.22179,-0.38824 -1.22179,-1.02768 0.0114,-0.59377 0.45674,-0.92491 1.02767,-0.92491 0.81073,0 1.19896,0.62803 1.27889,1.32456 l 0.33114,0 m -12.5887,-1.58719 0,0.33114 c 0.5481,0.0228 0.66228,0.0914 0.86782,0.59377 0.57093,1.37024 1.51868,3.80241 1.79273,4.5903 0.0685,0.19411 0.0913,0.3654 0.0913,0.55951 0,0.26263 -0.10276,0.60519 -0.27404,0.97059 -0.17128,0.37681 -0.37682,0.47958 -0.50242,0.47958 -0.11419,0 -0.21696,-0.0343 -0.42249,-0.23979 -0.11419,-0.10277 -0.20554,-0.15986 -0.34256,-0.15986 -0.21696,0 -0.50242,0.3083 -0.50242,0.63944 0,0.27405 0.31972,0.59377 0.7993,0.59377 0.45675,0 1.0391,-0.13702 1.62145,-1.82698 0.70796,-2.03252 1.75847,-4.81867 2.11245,-5.61798 0.20554,-0.45674 0.27405,-0.54809 0.84498,-0.58235 l 0,-0.33114 -2.19238,0 0,0.33114 0.59377,0.0571 c 0.19412,0.0228 0.21695,0.15986 0.15986,0.38823 -0.17128,0.68512 -0.76505,2.40934 -1.26747,3.77957 l -0.0228,0 c -0.52525,-1.38165 -0.982,-2.62629 -1.40449,-3.82524 -0.0685,-0.20554 -0.0914,-0.33115 0.17128,-0.35398 l 0.491,-0.0457 0,-0.33114 -2.61487,0 m -0.34791,2e-5 -4.38476,0 0,1.68996 0.35398,0 c 0.14844,-1.05051 0.38824,-1.29031 1.62145,-1.29031 l 1.14186,0 c -1.17611,1.67854 -2.37508,3.34567 -3.59687,5.02421 l 0.0914,0.17128 4.85292,0 0.11419,-1.74705 -0.35398,0 c -0.18269,1.07335 -0.57093,1.3474 -1.8384,1.3474 l -1.473,0 c 1.15328,-1.67854 2.35224,-3.35709 3.56261,-5.03563 l -0.0914,-0.15986 m -7.14165,3.96227 c 0,0.92491 -0.70796,1.1647 -1.15328,1.1647 -0.70796,0 -1.05052,-0.50242 -1.05052,-1.17612 0,-0.53667 0.25121,-0.81072 0.89066,-1.05051 0.45674,-0.17128 1.06193,-0.38824 1.31314,-0.5481 l 0,1.61003 m 1.02768,-2.58061 c 0,-0.66228 -0.14845,-1.51868 -1.87266,-1.51868 -1.2903,0 -2.30657,0.6737 -2.30657,1.30172 0,0.3654 0.42249,0.53668 0.63945,0.53668 0.23979,0 0.3083,-0.12561 0.3654,-0.31972 0.25121,-0.84498 0.71937,-1.11903 1.17612,-1.11903 0.44532,0 0.97058,0.22837 0.97058,1.14187 l 0,0.47958 c -0.28547,0.29688 -1.39308,0.58235 -2.29515,0.86782 -0.82214,0.25121 -1.06193,0.82214 -1.06193,1.35881 0,0.8564 0.57093,1.62145 1.64428,1.62145 0.70796,-0.0228 1.33599,-0.44533 1.70138,-0.68512 0.15986,0.42249 0.34256,0.68512 0.74221,0.68512 0.42249,0 0.9135,-0.1256 1.3474,-0.34256 l -0.0685,-0.27404 c -0.15986,0.0342 -0.41107,0.0571 -0.58235,0.0114 -0.20553,-0.0457 -0.39965,-0.26263 -0.39965,-0.982 l 0,-2.76331 m -5.97535,-4.19064 -0.0799,-0.0685 -1.79272,0.28547 0,0.28547 0.43391,0.0457 c 0.29688,0.0343 0.36539,0.0913 0.36539,0.52526 l 0,6.33735 c 0,0.58235 -0.0343,0.60518 -0.8564,0.66228 l 0,0.33114 2.78615,0 0,-0.33114 c -0.81072,-0.0571 -0.85639,-0.0799 -0.85639,-0.66228 l 0,-7.41071 m -6.78325,6.77122 c 0,0.92491 -0.70796,1.1647 -1.15329,1.1647 -0.70795,0 -1.05051,-0.50242 -1.05051,-1.17612 0,-0.53667 0.25121,-0.81072 0.89065,-1.05051 0.45675,-0.17128 1.06194,-0.38824 1.31315,-0.5481 l 0,1.61003 m 1.02768,-2.58061 c 0,-0.66228 -0.14845,-1.51868 -1.87266,-1.51868 -1.29031,0 -2.30657,0.6737 -2.30657,1.30172 0,0.3654 0.42249,0.53668 0.63945,0.53668 0.23979,0 0.3083,-0.12561 0.36539,-0.31972 0.25121,-0.84498 0.71938,-1.11903 1.17612,-1.11903 0.44533,0 0.97059,0.22837 0.97059,1.14187 l 0,0.47958 c -0.28547,0.29688 -1.39308,0.58235 -2.29515,0.86782 -0.82214,0.25121 -1.06193,0.82214 -1.06193,1.35881 0,0.8564 0.57093,1.62145 1.64428,1.62145 0.70796,-0.0228 1.33598,-0.44533 1.70138,-0.68512 0.15986,0.42249 0.34256,0.68512 0.74221,0.68512 0.42249,0 0.91349,-0.1256 1.3474,-0.34256 l -0.0685,-0.27404 c -0.15986,0.0342 -0.41107,0.0571 -0.58235,0.0114 -0.20554,-0.0457 -0.39965,-0.26263 -0.39965,-0.982 l 0,-2.76331 m -8.29174,0.20554 0,-1.33598 c -0.37681,-0.27405 -0.95917,-0.38823 -1.473,-0.38823 -1.23322,0 -2.06678,0.58235 -2.0782,1.66712 0.0114,0.94775 0.77647,1.37024 1.72422,1.6557 0.51384,0.15987 1.23321,0.42249 1.23321,1.19896 0,0.58235 -0.45674,0.94775 -1.06193,0.94775 -0.92491,0 -1.43875,-0.6737 -1.66712,-1.64429 l -0.33115,0 0.11419,1.49585 c 0.41107,0.36539 1.10761,0.54809 1.78131,0.54809 1.35882,0 2.13529,-0.71937 2.13529,-1.68996 0,-1.00484 -0.61661,-1.46158 -1.79273,-1.82698 -0.46816,-0.14844 -1.2218,-0.38824 -1.2218,-1.02768 0.0114,-0.59377 0.45675,-0.92491 1.02768,-0.92491 0.81073,0 1.19896,0.62803 1.27889,1.32456 l 0.33114,0 m -6.25099,2.37508 c 0,0.92491 -0.70796,1.1647 -1.15329,1.1647 -0.70795,0 -1.05051,-0.50242 -1.05051,-1.17612 0,-0.53667 0.25121,-0.81072 0.89065,-1.05051 0.45675,-0.17128 1.06194,-0.38824 1.31315,-0.5481 l 0,1.61003 m 1.02767,-2.58061 c 0,-0.66228 -0.14844,-1.51868 -1.87265,-1.51868 -1.29031,0 -2.30657,0.6737 -2.30657,1.30172 0,0.3654 0.42249,0.53668 0.63944,0.53668 0.2398,0 0.30831,-0.12561 0.3654,-0.31972 0.25121,-0.84498 0.71938,-1.11903 1.17612,-1.11903 0.44533,0 0.97059,0.22837 0.97059,1.14187 l 0,0.47958 c -0.28547,0.29688 -1.39308,0.58235 -2.29515,0.86782 -0.82214,0.25121 -1.06194,0.82214 -1.06194,1.35881 0,0.8564 0.57094,1.62145 1.64429,1.62145 0.70795,-0.0228 1.33598,-0.44533 1.70138,-0.68512 0.15986,0.42249 0.34256,0.68512 0.74221,0.68512 0.42249,0 0.91349,-0.1256 1.3474,-0.34256 l -0.0685,-0.27404 c -0.15986,0.0342 -0.41107,0.0571 -0.58235,0.0114 -0.20554,-0.0457 -0.39966,-0.26263 -0.39966,-0.982 l 0,-2.76331 m -13.73182,-1.38165 0,0.33114 c 0.46816,0.0228 0.61661,0.0571 0.75363,0.491 0.47958,1.50726 0.982,3.04878 1.46159,4.773 l 0.86781,0 1.3474,-4.35051 0.0343,0 c 0.47958,1.45017 0.94775,2.90034 1.40449,4.35051 l 0.86782,0 c 0.47958,-1.67854 1.15328,-3.71106 1.43875,-4.60172 0.19412,-0.58235 0.31972,-0.62802 0.89066,-0.66228 l 0,-0.33114 -2.24948,0 0,0.33114 0.65086,0.0571 c 0.19412,0.0228 0.20554,0.17128 0.15987,0.37681 -0.14845,0.6737 -0.6737,2.52352 -1.02768,3.81383 l -0.0228,0 c -0.491,-1.48442 -0.95917,-2.95743 -1.42733,-4.44185 l -0.86782,0 -1.32456,4.44185 -0.0228,0 c -0.41107,-1.31314 -0.76505,-2.63771 -1.13044,-3.87092 -0.0685,-0.21696 0,-0.31972 0.20553,-0.34256 l 0.39965,-0.0343 0,-0.33114 -2.40933,0 m -3.37183,2.59207 c 0.23979,0 0.45674,-0.0571 0.45674,-0.4339 0,-0.6737 -0.21695,-2.29515 -2.30656,-2.29515 -1.78131,0 -2.62629,1.26747 -2.62629,2.98026 0,1.80415 0.77647,2.91176 2.63771,2.88892 1.26746,-0.0114 1.91833,-0.70795 2.22663,-1.61003 l -0.34256,-0.1827 c -0.31972,0.66229 -0.75363,1.21038 -1.6557,1.21038 -1.41591,0 -1.70138,-1.37024 -1.67854,-2.55778 l 3.28857,0 m -3.27715,-0.4339 c 0,-0.46817 0.17128,-1.8955 1.35882,-1.8955 1.06193,0 1.18753,1.08477 1.18753,1.5301 0,0.21695 -0.0685,0.3654 -0.38823,0.3654 l -2.15812,0 m -4.03846,-2.29515 -1.73563,0.28546 0,0.28547 0.43391,0.0571 c 0.29688,0.0457 0.36539,0.10277 0.36539,0.51384 l 0,3.59688 c 0,0.58235 -0.0571,0.60518 -0.8564,0.66228 l 0,0.33114 3.01453,0 0,-0.33114 c -1.01626,-0.0571 -1.08477,-0.0799 -1.08477,-0.66228 l 0,-2.67197 c 0,-0.87923 0.38823,-1.17612 0.65086,-1.17612 0.1827,0 0.37681,0.0685 0.70796,0.25121 0.0799,0.0457 0.17127,0.0571 0.22837,0.0571 0.27405,0 0.52526,-0.28547 0.52526,-0.63945 0,-0.25121 -0.15987,-0.55951 -0.60519,-0.55951 -0.41107,0 -0.75363,0.25121 -1.50726,0.91349 l -0.13703,-0.91349 m -2.98794,2.72904 c 0.23979,0 0.45675,-0.0571 0.45675,-0.4339 0,-0.6737 -0.21696,-2.29515 -2.30657,-2.29515 -1.7813,0 -2.62629,1.26747 -2.62629,2.98026 0,1.80415 0.77647,2.91176 2.63771,2.88892 1.26747,-0.0114 1.91833,-0.70795 2.22664,-1.61003 l -0.34256,-0.1827 c -0.31972,0.66229 -0.75363,1.21038 -1.65571,1.21038 -1.41591,0 -1.70137,-1.37024 -1.67854,-2.55778 l 3.28857,0 m -3.27715,-0.4339 c 0,-0.46817 0.17128,-1.8955 1.35882,-1.8955 1.06193,0 1.18754,1.08477 1.18754,1.5301 0,0.21695 -0.0685,0.3654 -0.38823,0.3654 l -2.15813,0 m -2.79097,-0.47959 c 0,-1.15328 -0.62802,-1.81556 -1.68996,-1.81556 -0.83356,0 -1.3474,0.38823 -2.06677,0.86782 l 0,-3.53979 -0.0799,-0.0685 -1.78131,0.28547 0,0.28547 0.43391,0.0571 c 0.29688,0.0457 0.3654,0.10277 0.3654,0.51384 l 0,6.33735 c 0.0114,0.55951 -0.0457,0.60518 -0.84498,0.66228 l 0,0.33114 2.77473,0 0,-0.33114 c -0.78789,-0.0571 -0.8564,-0.10277 -0.8564,-0.66228 l 0,-2.67197 c 0,-0.28546 0.0114,-0.44532 0.10277,-0.6166 0.23979,-0.45675 0.76505,-0.83357 1.37023,-0.83357 0.77647,0 1.19896,0.43391 1.19896,1.42734 l 0,2.6948 c 0,0.55951 -0.0571,0.60518 -0.8564,0.66228 l 0,0.33114 2.78615,0 0,-0.33114 c -0.78788,-0.0571 -0.8564,-0.10277 -0.8564,-0.66228 l 0,-2.92318 m -6.10615,-1.22181 0,-0.45675 -1.473,0 0,-1.43875 -0.33114,0 -0.69654,1.43875 -0.86782,0 0,0.45675 0.82214,0 0,3.97369 c 0,1.1647 0.86782,1.30172 1.26747,1.30172 0.58236,0 1.13045,-0.29688 1.46159,-0.50242 l -0.0914,-0.23979 c -0.27404,0.11419 -0.52526,0.14844 -0.81072,0.14844 -0.38824,0 -0.75363,-0.27405 -0.75363,-1.14186 l 0,-3.53978 1.473,0 m 201.65354,-7.5249 c 0.57093,-0.53667 1.40449,-1.29031 1.40449,-2.19238 0,-0.62802 -0.37681,-1.03909 -0.77646,-1.02768 -0.35398,0 -0.55952,0.27405 -0.55952,0.57094 0,0.41107 0.37682,0.6166 0.37682,1.10761 0,0.46816 -0.29689,0.92491 -0.66228,1.32456 l 0.21695,0.21695 m -6.63263,-7.20516 0,0.33114 c 0.5481,0.0228 0.66228,0.0913 0.86782,0.59377 0.57093,1.37023 1.51868,3.80241 1.79273,4.59029 0.0685,0.19412 0.0914,0.3654 0.0914,0.55952 0,0.26263 -0.10277,0.60519 -0.27405,0.97058 -0.17128,0.37682 -0.37682,0.47958 -0.50242,0.47958 -0.11419,0 -0.21696,-0.0342 -0.42249,-0.23979 -0.11419,-0.10276 -0.20554,-0.15986 -0.34256,-0.15986 -0.21696,0 -0.50242,0.30831 -0.50242,0.63945 0,0.27404 0.31972,0.59377 0.7993,0.59377 0.45675,0 1.0391,-0.13703 1.62145,-1.82699 0.70796,-2.03251 1.75847,-4.81867 2.11245,-5.61797 0.20554,-0.45675 0.27405,-0.5481 0.84498,-0.58235 l 0,-0.33114 -2.19238,0 0,0.33114 0.59377,0.0571 c 0.19412,0.0228 0.21695,0.15986 0.15986,0.38823 -0.17128,0.68512 -0.76505,2.40934 -1.26747,3.77958 l -0.0228,0 c -0.52525,-1.38166 -0.982,-2.62629 -1.40449,-3.82525 -0.0685,-0.20554 -0.0914,-0.33114 0.17128,-0.35398 l 0.491,-0.0457 0,-0.33114 -2.61487,0 m -2.00336,3.96229 c 0,0.92491 -0.70796,1.1647 -1.15328,1.1647 -0.70796,0 -1.05052,-0.50242 -1.05052,-1.17612 0,-0.53668 0.25121,-0.81073 0.89066,-1.05052 0.45674,-0.17128 1.06193,-0.38823 1.31314,-0.54809 l 0,1.61003 m 1.02768,-2.58062 c 0,-0.66228 -0.14844,-1.51868 -1.87266,-1.51868 -1.2903,0 -2.30657,0.6737 -2.30657,1.30173 0,0.36539 0.42249,0.53667 0.63945,0.53667 0.23979,0 0.3083,-0.1256 0.3654,-0.31972 0.25121,-0.84498 0.71937,-1.11902 1.17612,-1.11902 0.44532,0 0.97058,0.22837 0.97058,1.14186 l 0,0.47958 c -0.28546,0.29689 -1.39307,0.58235 -2.29515,0.86782 -0.82214,0.25121 -1.06193,0.82214 -1.06193,1.35882 0,0.8564 0.57093,1.62145 1.64428,1.62145 0.70796,-0.0228 1.33599,-0.44533 1.70138,-0.68512 0.15986,0.42249 0.34256,0.68512 0.74221,0.68512 0.42249,0 0.9135,-0.12561 1.3474,-0.34256 l -0.0685,-0.27405 c -0.15986,0.0343 -0.41107,0.0571 -0.58235,0.0114 -0.20553,-0.0457 -0.39965,-0.26263 -0.39965,-0.982 l 0,-2.76332 m -13.73182,-1.38163 0,0.33114 c 0.46817,0.0228 0.61661,0.0571 0.75363,0.491 0.47959,1.50726 0.98201,3.04878 1.46159,4.77299 l 0.86782,0 1.3474,-4.3505 0.0342,0 c 0.47959,1.45017 0.94775,2.90034 1.4045,4.3505 l 0.86782,0 c 0.47958,-1.67854 1.15328,-3.71106 1.43875,-4.60171 0.19411,-0.58235 0.31972,-0.62803 0.89065,-0.66228 l 0,-0.33114 -2.24947,0 0,0.33114 0.65086,0.0571 c 0.19412,0.0228 0.20553,0.17128 0.15986,0.37682 -0.14844,0.6737 -0.6737,2.52352 -1.02768,3.81382 l -0.0228,0 c -0.491,-1.48442 -0.95916,-2.95743 -1.42733,-4.44185 l -0.86781,0 -1.32457,4.44185 -0.0228,0 c -0.41107,-1.31314 -0.76505,-2.6377 -1.13045,-3.87092 -0.0685,-0.21695 0,-0.31972 0.20554,-0.34256 l 0.39965,-0.0342 0,-0.33114 -2.40934,0 m -2.03754,3.96221 c 0,0.92491 -0.70796,1.1647 -1.15329,1.1647 -0.70795,0 -1.05051,-0.50242 -1.05051,-1.17612 0,-0.53668 0.25121,-0.81073 0.89065,-1.05052 0.45675,-0.17128 1.06194,-0.38823 1.31315,-0.54809 l 0,1.61003 m 1.02768,-2.58062 c 0,-0.66228 -0.14845,-1.51868 -1.87266,-1.51868 -1.29031,0 -2.30657,0.6737 -2.30657,1.30173 0,0.36539 0.42249,0.53667 0.63945,0.53667 0.23979,0 0.3083,-0.1256 0.36539,-0.31972 0.25121,-0.84498 0.71938,-1.11902 1.17612,-1.11902 0.44533,0 0.97059,0.22837 0.97059,1.14186 l 0,0.47958 c -0.28547,0.29689 -1.39308,0.58235 -2.29515,0.86782 -0.82214,0.25121 -1.06193,0.82214 -1.06193,1.35882 0,0.8564 0.57093,1.62145 1.64428,1.62145 0.70796,-0.0228 1.33598,-0.44533 1.70138,-0.68512 0.15986,0.42249 0.34256,0.68512 0.74221,0.68512 0.42249,0 0.91349,-0.12561 1.3474,-0.34256 l -0.0685,-0.27405 c -0.15986,0.0343 -0.41107,0.0571 -0.58235,0.0114 -0.20554,-0.0457 -0.39965,-0.26263 -0.39965,-0.982 l 0,-2.76332 m -9.789,-1.51866 -1.73564,0.28547 0,0.28546 0.43391,0.0571 c 0.29689,0.0457 0.3654,0.10277 0.3654,0.51384 l 0,3.59687 c 0,0.58235 -0.0571,0.60519 -0.8564,0.66228 l 0,0.33114 3.01452,0 0,-0.33114 c -1.01626,-0.0571 -1.08477,-0.0799 -1.08477,-0.66228 l 0,-2.67196 c 0,-0.87924 0.38824,-1.17612 0.65086,-1.17612 0.1827,0 0.37682,0.0685 0.70796,0.25121 0.0799,0.0457 0.17128,0.0571 0.22837,0.0571 0.27405,0 0.52526,-0.28547 0.52526,-0.63944 0,-0.25121 -0.15986,-0.55952 -0.60519,-0.55952 -0.41107,0 -0.75363,0.25121 -1.50726,0.91349 l -0.13702,-0.91349 m -4.21847,4.09929 c 0,0.92491 -0.70796,1.1647 -1.15329,1.1647 -0.70795,0 -1.05051,-0.50242 -1.05051,-1.17612 0,-0.53668 0.25121,-0.81073 0.89065,-1.05052 0.45675,-0.17128 1.06194,-0.38823 1.31315,-0.54809 l 0,1.61003 m 1.02767,-2.58062 c 0,-0.66228 -0.14844,-1.51868 -1.87265,-1.51868 -1.29031,0 -2.30657,0.6737 -2.30657,1.30173 0,0.36539 0.42249,0.53667 0.63944,0.53667 0.23979,0 0.30831,-0.1256 0.3654,-0.31972 0.25121,-0.84498 0.71938,-1.11902 1.17612,-1.11902 0.44533,0 0.97059,0.22837 0.97059,1.14186 l 0,0.47958 c -0.28547,0.29689 -1.39308,0.58235 -2.29515,0.86782 -0.82214,0.25121 -1.06194,0.82214 -1.06194,1.35882 0,0.8564 0.57094,1.62145 1.64429,1.62145 0.70795,-0.0228 1.33598,-0.44533 1.70138,-0.68512 0.15986,0.42249 0.34256,0.68512 0.74221,0.68512 0.42249,0 0.91349,-0.12561 1.3474,-0.34256 l -0.0685,-0.27405 c -0.15986,0.0343 -0.41107,0.0571 -0.58235,0.0114 -0.20554,-0.0457 -0.39966,-0.26263 -0.39966,-0.982 l 0,-2.76332 m -6.28437,-0.92489 1.39307,0 0,-0.45674 -1.39307,0 -0.0457,-1.27889 c -0.0342,-1.08477 0.3654,-1.19896 0.5481,-1.19896 0.23979,0 0.491,0.11419 0.77647,0.77647 0.0571,0.11418 0.13702,0.19411 0.3083,0.19411 0.22837,0 0.55951,-0.19411 0.55951,-0.53667 0,-0.37682 -0.47958,-0.83356 -1.39307,-0.83356 -0.62803,0 -1.1647,0.28546 -1.45017,0.71937 -0.26263,0.39965 -0.37681,1.00484 -0.37681,1.75847 l 0,0.39966 -0.87924,0 0,0.45674 0.87924,0 0,4.14497 c 0,0.58235 -0.0343,0.60519 -0.8564,0.66228 l 0,0.33114 3.01452,0 0,-0.33114 c -1.0391,-0.0457 -1.08477,-0.0685 -1.08477,-0.65086 l 0,-4.15639 m -7.13984,-0.59377 -1.73564,0.28547 0,0.28546 0.43391,0.0571 c 0.29689,0.0457 0.3654,0.10277 0.3654,0.51384 l 0,3.59687 c 0,0.58235 -0.0571,0.60519 -0.8564,0.66228 l 0,0.33114 3.01452,0 0,-0.33114 c -1.01626,-0.0571 -1.08477,-0.0799 -1.08477,-0.66228 l 0,-2.67196 c 0,-0.87924 0.38824,-1.17612 0.65086,-1.17612 0.1827,0 0.37682,0.0685 0.70796,0.25121 0.0799,0.0457 0.17128,0.0571 0.22837,0.0571 0.27405,0 0.52526,-0.28547 0.52526,-0.63944 0,-0.25121 -0.15986,-0.55952 -0.60519,-0.55952 -0.41107,0 -0.75363,0.25121 -1.50726,0.91349 l -0.13702,-0.91349 m -4.21848,4.09929 c 0,0.92491 -0.70795,1.1647 -1.15328,1.1647 -0.70795,0 -1.05051,-0.50242 -1.05051,-1.17612 0,-0.53668 0.25121,-0.81073 0.89065,-1.05052 0.45675,-0.17128 1.06193,-0.38823 1.31314,-0.54809 l 0,1.61003 m 1.02768,-2.58062 c 0,-0.66228 -0.14844,-1.51868 -1.87265,-1.51868 -1.29031,0 -2.30657,0.6737 -2.30657,1.30173 0,0.36539 0.42249,0.53667 0.63944,0.53667 0.23979,0 0.30831,-0.1256 0.3654,-0.31972 0.25121,-0.84498 0.71937,-1.11902 1.17612,-1.11902 0.44533,0 0.97058,0.22837 0.97058,1.14186 l 0,0.47958 c -0.28546,0.29689 -1.39307,0.58235 -2.29514,0.86782 -0.82214,0.25121 -1.06194,0.82214 -1.06194,1.35882 0,0.8564 0.57094,1.62145 1.64429,1.62145 0.70795,-0.0228 1.33598,-0.44533 1.70138,-0.68512 0.15986,0.42249 0.34256,0.68512 0.74221,0.68512 0.42249,0 0.91349,-0.12561 1.3474,-0.34256 l -0.0685,-0.27405 c -0.15986,0.0343 -0.41107,0.0571 -0.58235,0.0114 -0.20554,-0.0457 -0.39966,-0.26263 -0.39966,-0.982 l 0,-2.76332 m -6.28437,-0.92489 1.39307,0 0,-0.45674 -1.39307,0 -0.0457,-1.27889 c -0.0342,-1.08477 0.3654,-1.19896 0.5481,-1.19896 0.23979,0 0.491,0.11419 0.77647,0.77647 0.0571,0.11418 0.13702,0.19411 0.3083,0.19411 0.22837,0 0.55951,-0.19411 0.55951,-0.53667 0,-0.37682 -0.47958,-0.83356 -1.39307,-0.83356 -0.62803,0 -1.1647,0.28546 -1.45017,0.71937 -0.26263,0.39965 -0.37681,1.00484 -0.37681,1.75847 l 0,0.39966 -0.87924,0 0,0.45674 0.87924,0 0,4.14497 c 0,0.58235 -0.0343,0.60519 -0.8564,0.66228 l 0,0.33114 3.01452,0 0,-0.33114 c -1.0391,-0.0457 -1.08477,-0.0685 -1.08477,-0.65086 l 0,-4.15639 m -5.02722,5.13839 0,-0.33114 c -0.81072,-0.0571 -0.8564,-0.0799 -0.8564,-0.66228 l 0,-7.4107 -0.0799,-0.0685 -1.79273,0.28546 0,0.28547 0.43391,0.0457 c 0.29689,0.0343 0.3654,0.0913 0.3654,0.52526 l 0,1.87266 c -0.31972,-0.17128 -0.74221,-0.27405 -1.26747,-0.27405 -0.93633,0 -1.63287,0.29689 -2.11245,0.78789 -0.491,0.51384 -0.78789,1.26747 -0.78789,2.26089 0,1.68996 0.87924,2.82041 2.3865,2.82041 0.61661,0 1.15329,-0.27405 1.76989,-0.77647 l 0,0.55951 0.0914,0.0799 1.84982,0 m -1.92975,-1.94117 c 0,0.25121 -0.0114,0.44533 -0.0799,0.63945 -0.22837,0.59377 -0.73079,0.82214 -1.32456,0.82214 -1.05052,0 -1.57578,-1.02768 -1.57578,-2.34082 0,-1.48443 0.53668,-2.5121 1.70138,-2.5121 0.53668,0 0.97059,0.25121 1.17612,0.71937 0.0913,0.19412 0.10277,0.35398 0.10277,0.66228 l 0,2.00968 m -5.75671,-1.97543 c 0,-1.15328 -0.62803,-1.81557 -1.67854,-1.81557 -0.84498,0 -1.37024,0.41107 -2.0782,0.86782 l -0.15986,-0.86782 -1.70138,0.28547 0,0.28546 0.43391,0.0571 c 0.29689,0.0457 0.3654,0.10277 0.3654,0.51384 l 0,3.59687 c 0,0.58235 -0.0343,0.60519 -0.8564,0.66228 l 0,0.33114 2.78615,0 0,-0.33114 c -0.81072,-0.0571 -0.8564,-0.0799 -0.8564,-0.66228 l 0,-2.67196 c 0,-0.28547 0.0228,-0.44533 0.11419,-0.62803 0.23979,-0.44532 0.75363,-0.82214 1.35882,-0.82214 0.77646,0 1.19895,0.43391 1.19895,1.42733 l 0,2.6948 c 0,0.58235 -0.0342,0.60519 -0.85639,0.66228 l 0,0.33114 2.78615,0 0,-0.33114 c -0.81073,-0.0571 -0.8564,-0.0799 -0.8564,-0.66228 l 0,-2.92317 m -8.10082,2.28373 c 0,0.92491 -0.70795,1.1647 -1.15328,1.1647 -0.70795,0 -1.05051,-0.50242 -1.05051,-1.17612 0,-0.53668 0.25121,-0.81073 0.89065,-1.05052 0.45675,-0.17128 1.06193,-0.38823 1.31314,-0.54809 l 0,1.61003 m 1.02768,-2.58062 c 0,-0.66228 -0.14844,-1.51868 -1.87266,-1.51868 -1.2903,0 -2.30656,0.6737 -2.30656,1.30173 0,0.36539 0.42249,0.53667 0.63944,0.53667 0.23979,0 0.30831,-0.1256 0.3654,-0.31972 0.25121,-0.84498 0.71937,-1.11902 1.17612,-1.11902 0.44533,0 0.97058,0.22837 0.97058,1.14186 l 0,0.47958 c -0.28546,0.29689 -1.39307,0.58235 -2.29514,0.86782 -0.82215,0.25121 -1.06194,0.82214 -1.06194,1.35882 0,0.8564 0.57094,1.62145 1.64429,1.62145 0.70795,-0.0228 1.33598,-0.44533 1.70138,-0.68512 0.15986,0.42249 0.34256,0.68512 0.74221,0.68512 0.42249,0 0.91349,-0.12561 1.3474,-0.34256 l -0.0685,-0.27405 c -0.15986,0.0343 -0.41108,0.0571 -0.58235,0.0114 -0.20554,-0.0457 -0.39966,-0.26263 -0.39966,-0.982 l 0,-2.76332 m -5.97535,-4.19062 -0.0799,-0.0685 -1.79273,0.28546 0,0.28547 0.43391,0.0457 c 0.29688,0.0343 0.3654,0.0913 0.3654,0.52526 l 0,6.33735 c 0,0.58235 -0.0343,0.60519 -0.8564,0.66228 l 0,0.33114 2.78615,0 0,-0.33114 c -0.81073,-0.0571 -0.8564,-0.0799 -0.8564,-0.66228 l 0,-7.4107 m -6.78325,6.77122 c 0,0.92491 -0.70795,1.1647 -1.15328,1.1647 -0.70796,0 -1.05052,-0.50242 -1.05052,-1.17612 0,-0.53668 0.25122,-0.81073 0.89066,-1.05052 0.45674,-0.17128 1.06193,-0.38823 1.31314,-0.54809 l 0,1.61003 m 1.02768,-2.58062 c 0,-0.66228 -0.14844,-1.51868 -1.87266,-1.51868 -1.2903,0 -2.30656,0.6737 -2.30656,1.30173 0,0.36539 0.42249,0.53667 0.63944,0.53667 0.23979,0 0.3083,-0.1256 0.3654,-0.31972 0.25121,-0.84498 0.71937,-1.11902 1.17612,-1.11902 0.44533,0 0.97058,0.22837 0.97058,1.14186 l 0,0.47958 c -0.28546,0.29689 -1.39307,0.58235 -2.29514,0.86782 -0.82215,0.25121 -1.06194,0.82214 -1.06194,1.35882 0,0.8564 0.57093,1.62145 1.64429,1.62145 0.70795,-0.0228 1.33598,-0.44533 1.70137,-0.68512 0.15987,0.42249 0.34256,0.68512 0.74222,0.68512 0.42249,0 0.91349,-0.12561 1.3474,-0.34256 l -0.0685,-0.27405 c -0.15987,0.0343 -0.41108,0.0571 -0.58236,0.0114 -0.20553,-0.0457 -0.39965,-0.26263 -0.39965,-0.982 l 0,-2.76332 m -8.5383,0.29691 c 0,-1.15328 -0.62803,-1.81557 -1.67854,-1.81557 -0.84498,0 -1.37024,0.41107 -2.0782,0.86782 l -0.15986,-0.86782 -1.70138,0.28547 0,0.28546 0.43391,0.0571 c 0.29689,0.0457 0.3654,0.10277 0.3654,0.51384 l 0,3.59687 c 0,0.58235 -0.0343,0.60519 -0.8564,0.66228 l 0,0.33114 2.78615,0 0,-0.33114 c -0.81072,-0.0571 -0.8564,-0.0799 -0.8564,-0.66228 l 0,-2.67196 c 0,-0.28547 0.0228,-0.44533 0.11419,-0.62803 0.23979,-0.44532 0.75363,-0.82214 1.35882,-0.82214 0.77646,0 1.19896,0.43391 1.19896,1.42733 l 0,2.6948 c 0,0.58235 -0.0343,0.60519 -0.8564,0.66228 l 0,0.33114 2.78615,0 0,-0.33114 c -0.81073,-0.0571 -0.8564,-0.0799 -0.8564,-0.66228 l 0,-2.92317 m -8.94097,-1.5301 0,0.28546 0.4339,0.0571 c 0.29689,0.0457 0.3654,0.10277 0.3654,0.51384 l 0,3.59687 c 0,0.58235 -0.0343,0.60519 -0.8564,0.66228 l 0,0.33114 2.78615,0 0,-0.33114 c -0.81072,-0.0571 -0.8564,-0.0799 -0.8564,-0.66228 l 0,-4.67023 -0.0799,-0.0685 -1.79272,0.28547 m 1.32456,-2.71764 c -0.41107,0 -0.69654,0.29689 -0.69654,0.70796 0,0.39965 0.28547,0.68512 0.69654,0.68512 0.42249,0 0.68512,-0.28547 0.69654,-0.68512 0,-0.41107 -0.27405,-0.70796 -0.69654,-0.70796 m -6.54559,9.77435 c 0.57093,-0.53667 1.40449,-1.29031 1.40449,-2.19238 0,-0.62802 -0.37682,-1.03909 -0.77647,-1.02768 -0.35398,0 -0.55951,0.27405 -0.55951,0.57094 0,0.41107 0.37681,0.6166 0.37681,1.10761 0,0.46816 -0.29688,0.92491 -0.66228,1.32456 l 0.21696,0.21695 m -1.62913,-4.61313 c 0.23979,0 0.45675,-0.0571 0.45675,-0.43391 0,-0.6737 -0.21696,-2.29515 -2.30657,-2.29515 -1.78131,0 -2.62629,1.26747 -2.62629,2.98027 0,1.80414 0.77647,2.91175 2.63771,2.88892 1.26747,-0.0114 1.91833,-0.70796 2.22664,-1.61003 l -0.34256,-0.1827 c -0.31972,0.66228 -0.75363,1.21038 -1.65571,1.21038 -1.41591,0 -1.70137,-1.37024 -1.67854,-2.55778 l 3.28857,0 m -3.27715,-0.43391 c 0,-0.46816 0.17128,-1.89549 1.35882,-1.89549 1.06193,0 1.18754,1.08477 1.18754,1.53009 0,0.21696 -0.0685,0.3654 -0.38823,0.3654 l -2.15813,0 m -11.88485,-2.00968 0,0.28546 0.43391,0.0571 c 0.29689,0.0457 0.3654,0.10277 0.3654,0.51384 l 0,3.59687 c 0,0.58235 -0.0343,0.60519 -0.8564,0.66228 l 0,0.33114 2.78615,0 0,-0.33114 c -0.81072,-0.0571 -0.8564,-0.0799 -0.8564,-0.66228 l 0,-2.67196 c 0,-0.28547 0.0114,-0.44533 0.0914,-0.60519 0.21695,-0.45675 0.71938,-0.84498 1.3474,-0.84498 0.982,0 1.09619,0.71937 1.09619,1.42733 l 0,2.6948 c 0,0.58235 -0.0343,0.60519 -0.8564,0.66228 l 0,0.33114 2.78615,0 0,-0.33114 c -0.81072,-0.0571 -0.8564,-0.0799 -0.8564,-0.66228 l 0,-2.67196 c 0,-0.28547 0.0114,-0.44533 0.0799,-0.62803 0.17128,-0.45674 0.66229,-0.82214 1.30173,-0.82214 0.71937,-0.0228 1.15328,0.43391 1.15328,1.42733 l 0,2.6948 c 0,0.58235 -0.0342,0.60519 -0.8564,0.66228 l 0,0.33114 2.78615,0 0,-0.33114 c -0.81072,-0.0571 -0.85639,-0.0799 -0.85639,-0.66228 l 0,-2.92317 c 0,-1.15328 -0.61661,-1.81557 -1.70138,-1.81557 -0.93633,0 -1.61003,0.62803 -2.00968,0.87924 -0.27405,-0.53668 -0.70796,-0.87924 -1.50727,-0.87924 -0.87923,0 -1.59861,0.57094 -1.99826,0.86782 l -0.10277,-0.86782 -1.76989,0.28547 m -3.32302,0 0,0.28546 0.43391,0.0571 c 0.29688,0.0457 0.36539,0.10277 0.36539,0.51384 l 0,3.59687 c 0,0.58235 -0.0343,0.60519 -0.8564,0.66228 l 0,0.33114 2.78615,0 0,-0.33114 c -0.81072,-0.0571 -0.85639,-0.0799 -0.85639,-0.66228 l 0,-4.67023 -0.0799,-0.0685 -1.79272,0.28547 m 1.32456,-2.71764 c -0.41107,0 -0.69654,0.29689 -0.69654,0.70796 0,0.39965 0.28547,0.68512 0.69654,0.68512 0.42249,0 0.68512,-0.28547 0.69654,-0.68512 0,-0.41107 -0.27405,-0.70796 -0.69654,-0.70796 m -1.94977,3.02593 0,-0.45674 -1.473,0 0,-1.43875 -0.33115,0 -0.69653,1.43875 -0.86782,0 0,0.45674 0.82214,0 0,3.97369 c 0,1.1647 0.86782,1.30173 1.26747,1.30173 0.58235,0 1.13045,-0.29689 1.46159,-0.50242 l -0.0914,-0.2398 c -0.27405,0.11419 -0.52526,0.14845 -0.81072,0.14845 -0.38824,0 -0.75363,-0.27405 -0.75363,-1.14187 l 0,-3.53978 1.473,0 m -8.34752,3.50553 c 0,0.92491 -0.70795,1.1647 -1.15328,1.1647 -0.70795,0 -1.05051,-0.50242 -1.05051,-1.17612 0,-0.53668 0.25121,-0.81073 0.89065,-1.05052 0.45675,-0.17128 1.06193,-0.38823 1.31314,-0.54809 l 0,1.61003 m 1.02768,-2.58062 c 0,-0.66228 -0.14844,-1.51868 -1.87266,-1.51868 -1.2903,0 -2.30656,0.6737 -2.30656,1.30173 0,0.36539 0.42249,0.53667 0.63944,0.53667 0.23979,0 0.30831,-0.1256 0.3654,-0.31972 0.25121,-0.84498 0.71937,-1.11902 1.17612,-1.11902 0.44533,0 0.97058,0.22837 0.97058,1.14186 l 0,0.47958 c -0.28546,0.29689 -1.39307,0.58235 -2.29514,0.86782 -0.82215,0.25121 -1.06194,0.82214 -1.06194,1.35882 0,0.8564 0.57094,1.62145 1.64429,1.62145 0.70795,-0.0228 1.33598,-0.44533 1.70138,-0.68512 0.15986,0.42249 0.34256,0.68512 0.74221,0.68512 0.42249,0 0.91349,-0.12561 1.3474,-0.34256 l -0.0685,-0.27405 c -0.15986,0.0343 -0.41108,0.0571 -0.58235,0.0114 -0.20554,-0.0457 -0.39966,-0.26263 -0.39966,-0.982 l 0,-2.76332 m -8.5383,0.29691 c 0,-1.15328 -0.62803,-1.81557 -1.67854,-1.81557 -0.84498,0 -1.37024,0.41107 -2.0782,0.86782 l -0.15986,-0.86782 -1.70137,0.28547 0,0.28546 0.4339,0.0571 c 0.29689,0.0457 0.3654,0.10277 0.3654,0.51384 l 0,3.59687 c 0,0.58235 -0.0343,0.60519 -0.8564,0.66228 l 0,0.33114 2.78615,0 0,-0.33114 c -0.81072,-0.0571 -0.8564,-0.0799 -0.8564,-0.66228 l 0,-2.67196 c 0,-0.28547 0.0228,-0.44533 0.11419,-0.62803 0.23979,-0.44532 0.75363,-0.82214 1.35882,-0.82214 0.77647,0 1.19896,0.43391 1.19896,1.42733 l 0,2.6948 c 0,0.58235 -0.0343,0.60519 -0.8564,0.66228 l 0,0.33114 2.78615,0 0,-0.33114 c -0.81073,-0.0571 -0.8564,-0.0799 -0.8564,-0.66228 l 0,-2.92317 m -9.331,-1.81557 c -1.82698,0 -2.72906,1.08478 -2.72906,2.93459 0,1.84982 0.90208,2.9346 2.72906,2.9346 1.84982,0 2.74048,-1.08478 2.74048,-2.9346 0,-1.84981 -0.89066,-2.93459 -2.74048,-2.93459 m -1.54152,2.93459 c 0,-1.57577 0.50242,-2.53493 1.54152,-2.53493 1.06193,0 1.55294,0.95916 1.55294,2.53493 0,1.57578 -0.49101,2.53494 -1.55294,2.53494 -1.0391,0 -1.54152,-0.95916 -1.54152,-2.53494 m -6.46777,-0.86781 c 0,-0.28547 0.0457,-0.44533 0.14844,-0.65087 0.26263,-0.52525 0.75364,-0.7993 1.35882,-0.7993 0.45675,0 1.47301,0.29689 1.47301,2.26089 0,1.67854 -0.52526,2.59203 -1.66712,2.59203 -0.59377,0 -1.05052,-0.3083 -1.23322,-0.83356 -0.0685,-0.20553 -0.0799,-0.43391 -0.0799,-0.69653 l 0,-1.87266 m -1.87266,-1.78131 0,0.28546 0.43391,0.0571 c 0.29689,0.0457 0.3654,0.10277 0.3654,0.51384 l 0,6.22316 c 0,0.58235 -0.0571,0.60519 -0.8564,0.66228 l 0,0.33114 2.95743,0 0,-0.33114 c -0.95917,-0.0571 -1.02768,-0.0799 -1.02768,-0.66228 l 0,-1.75847 c 0.23979,0.13702 0.77647,0.26263 1.30173,0.26263 1.54151,0 2.86608,-0.70796 2.86608,-3.0602 0,-0.81072 -0.14845,-2.80899 -2.22664,-2.80899 -0.83356,0 -1.49584,0.55952 -1.94117,0.84498 l -0.14844,-0.84498 -1.72422,0.28547 m -0.5078,5.44669 0,-0.33114 c -0.78788,-0.0571 -0.8564,-0.0799 -0.8564,-0.66228 l 0,-4.67023 -0.0799,-0.0685 -1.79272,0.28547 0,0.28546 0.4339,0.0571 c 0.29689,0.0457 0.3654,0.10277 0.3654,0.51384 l 0,2.56919 c 0,0.31972 -0.0343,0.57094 -0.0914,0.68512 -0.26263,0.52526 -0.81072,0.8564 -1.40449,0.8564 -0.66228,0 -1.15328,-0.41107 -1.15328,-1.30173 l 0,-3.88234 -0.0799,-0.0685 -1.79272,0.28547 0,0.28546 0.43391,0.0571 c 0.29688,0.0457 0.36539,0.10277 0.36539,0.51384 l 0,3.01452 c 0,1.31314 0.77647,1.7128 1.62145,1.7128 0.97058,0 1.75847,-0.66228 2.08961,-0.82215 l 0.11419,0.68512 1.82698,0 m -10.14299,-3.00312 c 0.23979,0 0.45675,-0.0571 0.45675,-0.43391 0,-0.6737 -0.21696,-2.29515 -2.30657,-2.29515 -1.78131,0 -2.62629,1.26747 -2.62629,2.98027 0,1.80414 0.77647,2.91175 2.63771,2.88892 1.26747,-0.0114 1.91833,-0.70796 2.22664,-1.61003 l -0.34256,-0.1827 c -0.31973,0.66228 -0.75364,1.21038 -1.65571,1.21038 -1.41591,0 -1.70138,-1.37024 -1.67854,-2.55778 l 3.28857,0 m -3.27715,-0.43391 c 0,-0.46816 0.17128,-1.89549 1.35882,-1.89549 1.06193,0 1.18754,1.08477 1.18754,1.53009 0,0.21696 -0.0685,0.3654 -0.38824,0.3654 l -2.15812,0 m -3.9976,2.98027 c -1.35881,0 -1.67854,-1.41592 -1.67854,-2.48927 0,-1.70137 0.6737,-2.38649 1.46159,-2.38649 0.52526,0 0.8564,0.37681 1.08477,0.99342 0.0685,0.1827 0.13703,0.29688 0.35398,0.29688 0.22837,0 0.6737,-0.14844 0.6737,-0.58235 0,-0.52526 -0.75363,-1.10761 -1.98685,-1.10761 -2.07819,0 -2.77473,1.47301 -2.77473,2.99169 0,1.90691 0.93633,2.8775 2.64913,2.8775 0.7993,0 1.87266,-0.42249 2.19238,-1.64429 l -0.33114,-0.15986 c -0.35398,0.79931 -0.81073,1.21038 -1.64429,1.21038 m -4.45487,-3.45985 c 0,-1.15328 -0.62803,-1.81557 -1.67854,-1.81557 -0.84498,0 -1.37024,0.41107 -2.0782,0.86782 l -0.15986,-0.86782 -1.70138,0.28547 0,0.28546 0.43391,0.0571 c 0.29689,0.0457 0.3654,0.10277 0.3654,0.51384 l 0,3.59687 c 0,0.58235 -0.0343,0.60519 -0.8564,0.66228 l 0,0.33114 2.78615,0 0,-0.33114 c -0.81072,-0.0571 -0.8564,-0.0799 -0.8564,-0.66228 l 0,-2.67196 c 0,-0.28547 0.0228,-0.44533 0.11419,-0.62803 0.23979,-0.44532 0.75363,-0.82214 1.35882,-0.82214 0.77646,0 1.19895,0.43391 1.19895,1.42733 l 0,2.6948 c 0,0.58235 -0.0343,0.60519 -0.8564,0.66228 l 0,0.33114 2.78615,0 0,-0.33114 c -0.81072,-0.0571 -0.85639,-0.0799 -0.85639,-0.66228 l 0,-2.92317 m -10.38776,-3.75674 c 2.03252,0 2.50068,2.04394 2.52352,3.72248 -0.0228,1.67854 -0.491,3.72248 -2.52352,3.72248 -2.03252,0 -2.50068,-2.04394 -2.52352,-3.72248 0.0228,-1.67854 0.491,-3.72248 2.52352,-3.72248 m 0,-0.39965 c -1.25605,0 -2.19238,0.38823 -2.83183,1.10761 -0.6166,0.68512 -0.97058,1.72422 -0.97058,3.01452 0,1.27889 0.35398,2.32941 0.97058,3.01452 0.63945,0.71938 1.57578,1.10761 2.83183,1.10761 1.26747,0 2.19238,-0.38823 2.83182,-1.10761 0.62803,-0.68511 0.97059,-1.73563 0.97059,-3.01452 0,-1.2903 -0.34256,-2.3294 -0.97059,-3.01452 -0.63944,-0.71938 -1.56435,-1.10761 -2.83182,-1.10761"
           id="path3383" />
      </g>
    </g>
  </g>
</svg>
